<svg width="154" height="88" viewBox="0 0 154 88" fill="none" xmlns="http://www.w3.org/2000/svg">
<path d="M16.2676 13.7606C16.2676 11.5515 18.0584 9.76062 20.2676 9.76062H134.753C136.962 9.76062 138.753 11.5515 138.753 13.7606V75.1691C138.753 77.3782 136.962 79.1691 134.753 79.1691H20.2676C18.0584 79.1691 16.2676 77.3782 16.2676 75.1691V13.7606Z" fill="#DEEBFF"/>
<mask id="mask0_320_748" style="mask-type:alpha" maskUnits="userSpaceOnUse" x="0" y="0" width="154" height="88">
<rect x="0.5" y="0.5" width="153" height="86.8451" rx="9.5" fill="white" stroke="#C1C7D0"/>
</mask>
<g mask="url(#mask0_320_748)">
</g>
<path d="M110.15 32.6525C110.565 32.355 111.049 32.1684 111.556 32.1104C112.063 32.0524 112.576 32.1249 113.047 32.3211C113.392 32.4533 113.707 32.6542 113.972 32.9117C114.237 33.1692 114.447 33.478 114.589 33.8191C114.728 34.1477 114.762 34.5109 114.686 34.8594C114.611 35.2079 114.431 35.5249 114.169 35.7672C113.57 36.2535 112.623 36.1179 111.916 35.6972C111.235 35.211 110.657 34.5949 110.215 33.8843C110.07 33.7054 109.962 33.5005 109.895 33.2807C109.86 33.1758 109.858 33.0628 109.888 32.9565C109.918 32.8502 109.98 32.7555 110.065 32.6849" fill="white"/>
<path d="M114.98 31.0515C114.722 30.9647 114.22 32.7025 112.377 33.5103C110.534 34.3182 108.737 33.5918 108.654 33.8382C108.598 33.9411 108.971 34.2931 109.726 34.5339C110.748 34.8453 111.847 34.7863 112.829 34.3674C113.763 33.9644 114.503 33.2147 114.895 32.2764C115.173 31.5647 115.103 31.0753 114.98 31.0515Z" fill="#263238"/>
<path d="M127.88 33.5966C127.88 33.5966 113.204 25.2174 108.642 23.5612L102.279 46.7507C118.807 53.6723 130.21 40.7096 130.21 40.7096L127.88 33.5966Z" fill="white"/>
<path d="M129.751 40.5466C130.337 40.8488 130.947 41.0993 131.576 41.2952C132.182 41.5589 132.82 41.7426 133.473 41.8418C132.886 41.5421 132.276 41.2917 131.648 41.0932C131.043 40.8291 130.405 40.6454 129.751 40.5466Z" fill="#FAFAFA"/>
<path d="M135.315 29.3633C135.283 29.3528 134.882 29.7183 134.177 30.2865C133.472 30.8548 132.476 31.5775 131.317 32.3194C130.158 33.0612 129.091 33.682 128.305 34.1183C127.871 34.3384 127.449 34.5816 127.041 34.8468C127.041 34.8468 127.18 34.8106 127.413 34.7108C127.647 34.611 127.971 34.4631 128.378 34.2515C129.426 33.7204 130.447 33.1352 131.435 32.4984C132.428 31.8677 133.374 31.1679 134.268 30.4042C134.607 30.109 134.887 29.8592 135.045 29.6731C135.149 29.5828 135.24 29.4785 135.315 29.3633Z" fill="#FAFAFA"/>
<path d="M97.9638 26.0335L108.64 23.5651L102.279 46.7507C102.279 46.7507 94.0149 40.8677 96.0689 32.4958C96.562 30.3035 97.1949 28.145 97.9638 26.0335Z" fill="white"/>
<path d="M96.1298 33.1039C96.1494 33.1088 96.17 33.1078 96.1891 33.1011C96.2081 33.0944 96.2248 33.0822 96.237 33.0661C96.2492 33.0499 96.2563 33.0306 96.2576 33.0104C96.2589 32.9903 96.2543 32.9702 96.2442 32.9526C96.2342 32.9351 96.2192 32.9209 96.2012 32.9118C96.1831 32.9027 96.1628 32.8991 96.1428 32.9014C96.1227 32.9037 96.1037 32.9119 96.0883 32.9249C96.0728 32.9379 96.0615 32.9552 96.0558 32.9746C96.049 33.0015 96.0529 33.0301 96.0667 33.0542C96.0805 33.0784 96.1031 33.0962 96.1298 33.1039Z" fill="#E0E0E0"/>
<path d="M95.9933 33.9241C96.0481 33.9425 96.1136 33.8383 96.1243 33.7287C96.135 33.6192 96.0988 33.5199 96.0414 33.5093C95.984 33.4987 95.9238 33.5873 95.9104 33.7047C95.897 33.8221 95.9346 33.9174 95.9933 33.9241Z" fill="#E0E0E0"/>
<path d="M96.0105 34.7526C96.0693 34.7462 96.11 34.6511 96.1037 34.5402C96.0975 34.4293 96.0456 34.3378 95.9843 34.3389C95.9229 34.3401 95.8822 34.4352 95.9106 34.5579C95.939 34.6806 95.9518 34.759 96.0105 34.7526Z" fill="#E0E0E0"/>
<path d="M96.1387 35.5751C96.2001 35.5609 96.2291 35.4618 96.2137 35.3522C96.1983 35.2425 96.1268 35.1575 96.0707 35.1691C96.0145 35.1807 95.9817 35.2785 95.9957 35.392C96.0097 35.5056 96.0826 35.5866 96.1387 35.5751Z" fill="#E0E0E0"/>
<path d="M96.3572 36.3753C96.412 36.3546 96.4332 36.2529 96.3995 36.1458C96.3659 36.0387 96.297 35.9589 96.2395 35.9745C96.1821 35.99 96.1609 36.0917 96.1958 36.2079C96.2308 36.3241 96.2997 36.3908 96.3572 36.3753Z" fill="#E0E0E0"/>
<path d="M96.633 37.1602C96.6878 37.1394 96.7011 37.0351 96.6623 36.9306C96.6234 36.8261 96.544 36.7516 96.4892 36.7723C96.4343 36.793 96.4223 36.8934 96.4599 37.0018C96.4974 37.1102 96.5781 37.1809 96.633 37.1602Z" fill="#E0E0E0"/>
<path d="M96.9427 37.9347C96.9988 37.9101 97.0069 37.8083 96.9642 37.7025C96.9214 37.5968 96.8407 37.5261 96.7845 37.5507C96.7283 37.5754 96.7202 37.6771 96.763 37.7829C96.8058 37.8887 96.8747 37.9685 96.9427 37.9347Z" fill="#E0E0E0"/>
<path d="M97.2733 38.6989C97.3294 38.6743 97.318 38.5659 97.2869 38.4641C97.2559 38.3622 97.1621 38.2915 97.106 38.3162C97.0498 38.3408 97.0613 38.4491 97.0923 38.551C97.1233 38.6528 97.221 38.7249 97.2733 38.6989Z" fill="#E0E0E0"/>
<path d="M97.6235 39.4565C97.6758 39.4305 97.6696 39.3196 97.6333 39.2203C97.597 39.1211 97.498 39.053 97.4458 39.0789C97.3935 39.1049 97.4011 39.2119 97.4373 39.3111C97.4736 39.4104 97.5713 39.4824 97.6235 39.4565Z" fill="#E0E0E0"/>
<path d="M97.9958 40.1999C98.0481 40.174 98.0405 40.067 97.9964 39.9651C97.9524 39.8632 97.8586 39.8056 97.8063 39.8315C97.7541 39.8575 97.7616 39.9645 97.8057 40.0664C97.8498 40.1682 97.9422 40.2298 97.9958 40.1999Z" fill="#E0E0E0"/>
<path d="M98.3997 40.9277C98.4533 40.8978 98.4458 40.7908 98.3912 40.6941C98.3367 40.5974 98.2482 40.5372 98.1946 40.567C98.141 40.5969 98.1499 40.7 98.2031 40.8006C98.2563 40.9012 98.3501 40.9589 98.3997 40.9277Z" fill="#E0E0E0"/>
<path d="M98.8415 41.6335C98.8925 41.5984 98.8875 41.4966 98.8199 41.3999C98.7524 41.3031 98.669 41.2533 98.6154 41.2832C98.5618 41.3131 98.5707 41.4162 98.6409 41.5181C98.7111 41.6201 98.7971 41.6621 98.8415 41.6335Z" fill="#E0E0E0"/>
<path d="M99.3314 42.3119C99.3785 42.2755 99.3774 42.175 99.2916 42.0808C99.2057 41.9867 99.1289 41.9434 99.0831 41.9759C99.0374 42.0084 99.0384 42.1089 99.119 42.2056C99.1997 42.3024 99.2804 42.347 99.3314 42.3119Z" fill="#E0E0E0"/>
<path d="M99.8569 42.9501C99.9 42.9123 99.8742 42.8079 99.8027 42.7229C99.7312 42.6379 99.6321 42.5959 99.5798 42.6479C99.5275 42.7 99.5598 42.7849 99.634 42.8751C99.7081 42.9653 99.8085 42.9904 99.8569 42.9501Z" fill="#E0E0E0"/>
<path d="M100.427 43.5466C100.471 43.505 100.439 43.407 100.358 43.3233C100.277 43.2396 100.177 43.2145 100.139 43.2497C100.101 43.2848 100.127 43.3892 100.208 43.473C100.288 43.5567 100.386 43.5896 100.427 43.5466Z" fill="#E0E0E0"/>
<path d="M101.044 44.1067C101.082 44.0585 101.044 43.9632 100.957 43.8859C100.87 43.8087 100.772 43.7889 100.731 43.8318C100.691 43.8748 100.731 43.9754 100.819 44.0487C100.908 44.122 101.008 44.147 101.044 44.1067Z" fill="#E0E0E0"/>
<path d="M101.698 44.6185C101.716 44.5677 101.69 44.4763 101.596 44.4056C101.502 44.3349 101.396 44.3385 101.365 44.3671C101.334 44.3957 101.374 44.5093 101.468 44.5801C101.561 44.6508 101.664 44.668 101.698 44.6185Z" fill="#E0E0E0"/>
<path d="M102.385 45.0887C102.403 45.0339 102.363 44.9464 102.271 44.8849C102.178 44.8233 102.067 44.8165 102.036 44.8581C102.004 44.8998 102.054 44.9991 102.15 45.062C102.246 45.1249 102.351 45.1382 102.385 45.0887Z" fill="#E0E0E0"/>
<path d="M103.096 45.5109C103.114 45.4562 103.068 45.3751 102.97 45.3162C102.872 45.2572 102.771 45.2491 102.738 45.3077C102.705 45.3663 102.761 45.4461 102.864 45.5025C102.967 45.5588 103.068 45.5669 103.096 45.5109Z" fill="#E0E0E0"/>
<path d="M103.833 45.8938C103.853 45.8351 103.797 45.7554 103.697 45.7042C103.597 45.6531 103.487 45.6554 103.461 45.7075C103.435 45.7596 103.497 45.8459 103.597 45.897C103.698 45.9482 103.803 45.9576 103.833 45.8938Z" fill="#E0E0E0"/>
<path d="M104.593 46.2233C104.612 46.1685 104.547 46.0901 104.445 46.0428C104.343 45.9956 104.235 46.007 104.213 46.0605C104.19 46.1139 104.254 46.1963 104.361 46.2409C104.468 46.2856 104.568 46.2845 104.593 46.2233Z" fill="#E0E0E0"/>
<path d="M105.369 46.5189C105.387 46.4642 105.317 46.3883 105.213 46.3489C105.108 46.3094 104.999 46.3248 104.98 46.3796C104.962 46.4343 105.027 46.5128 105.136 46.5496C105.246 46.5864 105.349 46.5776 105.369 46.5189Z" fill="#E0E0E0"/>
<path d="M106.169 46.7534C106.188 46.6986 106.108 46.624 106.001 46.5924C105.894 46.5608 105.789 46.5775 105.769 46.6362C105.749 46.6948 105.826 46.7642 105.941 46.7984C106.055 46.8326 106.148 46.829 106.169 46.7534Z" fill="#E0E0E0"/>
<path d="M106.97 46.9747C106.988 46.9199 106.903 46.8479 106.794 46.8242C106.684 46.8004 106.581 46.8223 106.567 46.8783C106.552 46.9344 106.629 47.0038 106.741 47.0328C106.853 47.0618 106.963 47.0203 106.97 46.9747Z" fill="#E0E0E0"/>
<path d="M107.79 47.1374C107.808 47.0826 107.713 47.0158 107.602 46.9959C107.491 46.9761 107.391 47.0032 107.379 47.0645C107.367 47.1258 107.448 47.1834 107.563 47.2046C107.677 47.2258 107.779 47.1947 107.79 47.1374Z" fill="#E0E0E0"/>
<path d="M108.612 47.257C108.63 47.2022 108.53 47.138 108.417 47.1221C108.305 47.1061 108.206 47.1424 108.199 47.2011C108.193 47.2598 108.276 47.3226 108.39 47.3347C108.503 47.3467 108.605 47.3157 108.612 47.257Z" fill="#E0E0E0"/>
<path d="M109.438 47.335C109.457 47.2802 109.355 47.2199 109.24 47.2118C109.126 47.2037 109.03 47.2412 109.024 47.2999C109.017 47.3586 109.107 47.415 109.222 47.4231C109.336 47.4312 109.425 47.4132 109.438 47.335Z" fill="#E0E0E0"/>
<path d="M110.249 47.3853C110.267 47.3305 110.164 47.2741 110.049 47.266C109.935 47.2579 109.84 47.3046 109.835 47.3594C109.83 47.4141 109.922 47.4757 110.038 47.4799C110.154 47.4842 110.261 47.4505 110.249 47.3853Z" fill="#E0E0E0"/>
<path d="M111.106 47.4256C111.124 47.3708 111.017 47.3131 110.9 47.3128C110.782 47.3125 110.691 47.3514 110.688 47.4114C110.685 47.4714 110.777 47.5238 110.894 47.5241C111.011 47.5245 111.087 47.4803 111.106 47.4256Z" fill="#E0E0E0"/>
<path d="M111.931 47.4291C111.93 47.3678 111.838 47.3193 111.72 47.3189C111.603 47.3186 111.517 47.368 111.514 47.428C111.511 47.488 111.609 47.5339 111.722 47.5329C111.836 47.5319 111.93 47.4852 111.931 47.4291Z" fill="#E0E0E0"/>
<path d="M112.766 47.4053C112.76 47.3465 112.666 47.3019 112.551 47.3068C112.437 47.3117 112.346 47.3598 112.348 47.4211C112.349 47.4824 112.444 47.5231 112.559 47.5182C112.674 47.5133 112.768 47.4666 112.766 47.4053Z" fill="#E0E0E0"/>
<path d="M113.596 47.3579C113.59 47.2992 113.496 47.2546 113.38 47.2634C113.264 47.2723 113.176 47.3255 113.183 47.3842C113.189 47.443 113.279 47.4863 113.395 47.4774C113.511 47.4686 113.603 47.4167 113.596 47.3579Z" fill="#E0E0E0"/>
<path d="M114.428 47.2806C114.421 47.2218 114.325 47.185 114.205 47.2056C114.085 47.2261 114.002 47.2768 114.009 47.3355C114.015 47.3943 114.112 47.431 114.232 47.4105C114.352 47.3899 114.429 47.3549 114.428 47.2806Z" fill="#E0E0E0"/>
<path d="M115.249 47.1954C115.241 47.1406 115.141 47.1025 115.026 47.1204C114.911 47.1384 114.826 47.1969 114.832 47.2556C114.839 47.3143 114.939 47.3524 115.055 47.3306C115.171 47.3087 115.265 47.2359 115.249 47.1954Z" fill="#E0E0E0"/>
<path d="M116.08 47.0398C116.069 46.9837 115.967 46.9495 115.857 46.9648C115.748 46.9802 115.66 47.0465 115.67 47.1065C115.681 47.1666 115.78 47.1955 115.893 47.1815C116.007 47.1674 116.089 47.1037 116.08 47.0398Z" fill="#E0E0E0"/>
<path d="M116.896 46.8788C116.884 46.8227 116.781 46.7924 116.673 46.8038C116.565 46.8153 116.482 46.892 116.493 46.9521C116.503 47.0121 116.603 47.0372 116.716 47.0271C116.828 47.0169 116.906 46.9388 116.896 46.8788Z" fill="#E0E0E0"/>
<path d="M117.704 46.6891C117.689 46.6317 117.588 46.6066 117.479 46.635C117.369 46.6634 117.285 46.731 117.301 46.7885C117.316 46.8459 117.417 46.871 117.524 46.8634C117.631 46.8559 117.72 46.7465 117.704 46.6891Z" fill="#E0E0E0"/>
<path d="M118.506 46.4669C118.486 46.4082 118.385 46.387 118.278 46.4207C118.17 46.4543 118.091 46.5232 118.106 46.5807C118.122 46.6381 118.223 46.6593 118.334 46.627C118.445 46.5946 118.523 46.5205 118.506 46.4669Z" fill="#E0E0E0"/>
<path d="M119.297 46.2108C119.278 46.1521 119.173 46.1387 119.066 46.1724C118.959 46.206 118.885 46.2854 118.901 46.3389C118.918 46.3925 119.024 46.4149 119.132 46.3774C119.241 46.3398 119.33 46.2696 119.297 46.2108Z" fill="#E0E0E0"/>
<path d="M120.077 45.9246C120.056 45.8697 119.952 45.8564 119.847 45.8953C119.743 45.9341 119.668 46.0135 119.689 46.0684C119.71 46.1232 119.814 46.1365 119.918 46.0977C120.023 46.0588 120.098 45.9794 120.077 45.9246Z" fill="#E0E0E0"/>
<path d="M120.861 45.6005C120.836 45.5444 120.728 45.5558 120.628 45.579C120.529 45.6022 120.456 45.7038 120.477 45.7587C120.497 45.8135 120.603 45.8229 120.71 45.7763C120.817 45.7296 120.873 45.6658 120.861 45.6005Z" fill="#E0E0E0"/>
<path d="M121.609 45.2775C121.583 45.2253 121.472 45.2315 121.374 45.2639C121.276 45.2962 121.204 45.3939 121.23 45.4461C121.256 45.4984 121.363 45.4909 121.461 45.4585C121.559 45.4262 121.635 45.3298 121.609 45.2775Z" fill="#E0E0E0"/>
<path d="M122.36 44.9209C122.334 44.8686 122.223 44.8748 122.123 44.915C122.022 44.9552 121.961 45.0476 121.985 45.1038C122.01 45.16 122.118 45.1485 122.219 45.1084C122.319 45.0682 122.378 44.9705 122.36 44.9209Z" fill="#E0E0E0"/>
<path d="M123.101 44.5432C123.071 44.4897 122.964 44.4972 122.866 44.5426C122.768 44.588 122.703 44.6792 122.732 44.7327C122.762 44.7863 122.865 44.7775 122.963 44.7321C123.061 44.6867 123.127 44.5955 123.101 44.5432Z" fill="#E0E0E0"/>
<path d="M123.831 44.1445C123.8 44.0948 123.695 44.0984 123.598 44.153C123.501 44.2075 123.437 44.2948 123.468 44.3444C123.499 44.3941 123.601 44.3891 123.7 44.3398C123.8 44.2905 123.861 44.1981 123.831 44.1445Z" fill="#E0E0E0"/>
<path d="M124.538 43.7251C124.511 43.6767 124.405 43.6804 124.307 43.7388C124.209 43.7973 124.149 43.8858 124.18 43.9355C124.212 43.9852 124.313 43.9802 124.415 43.9231C124.517 43.8659 124.573 43.8022 124.538 43.7251Z" fill="#E0E0E0"/>
<path d="M125.261 43.2979C125.23 43.2482 125.128 43.2532 125.029 43.3155C124.929 43.3779 124.878 43.4652 124.908 43.5187C124.938 43.5723 125.041 43.5634 125.14 43.5011C125.24 43.4387 125.292 43.3475 125.261 43.2979Z" fill="#E0E0E0"/>
<path d="M125.964 42.8509C125.932 42.8051 125.827 42.8048 125.729 42.8763C125.631 42.9478 125.583 43.0273 125.614 43.0769C125.645 43.1266 125.747 43.1217 125.847 43.0554C125.948 42.9891 125.995 42.9005 125.964 42.8509Z" fill="#E0E0E0"/>
<path d="M126.654 42.3909C126.619 42.3399 126.517 42.3449 126.423 42.4177C126.329 42.4905 126.275 42.5726 126.311 42.6235C126.346 42.6745 126.443 42.6683 126.542 42.5968C126.64 42.5253 126.687 42.4367 126.654 42.3909Z" fill="#E0E0E0"/>
<path d="M127.325 41.9112C127.294 41.8615 127.192 41.8665 127.096 41.9432C127.001 42.0199 126.953 42.0994 126.988 42.1504C127.023 42.2013 127.121 42.1951 127.22 42.1197C127.319 42.0443 127.369 41.9609 127.325 41.9112Z" fill="#E0E0E0"/>
<path d="M128.003 41.4213C127.971 41.3755 127.87 41.3766 127.774 41.4572C127.677 41.5378 127.636 41.6199 127.671 41.6709C127.706 41.7219 127.804 41.7156 127.902 41.6311C128 41.5465 128.034 41.484 128.003 41.4213Z" fill="#E0E0E0"/>
<path d="M128.665 40.9167C128.628 40.8696 128.532 40.872 128.438 40.9578C128.344 41.0437 128.299 41.1245 128.335 41.1715C128.372 41.2186 128.475 41.1967 128.568 41.1278C128.661 41.0589 128.703 40.9598 128.665 40.9167Z" fill="#E0E0E0"/>
<path d="M128.821 39.5721C128.764 39.5876 128.746 39.6906 128.784 39.799C128.822 39.9074 128.893 39.9794 128.948 39.9586C129.003 39.9379 129.023 39.8401 128.985 39.7317C128.948 39.6233 128.88 39.5396 128.821 39.5721Z" fill="#E0E0E0"/>
<path d="M128.566 38.7768C128.511 38.7975 128.494 38.9005 128.528 39.0076C128.561 39.1147 128.637 39.188 128.696 39.1685C128.754 39.1491 128.766 39.0487 128.733 38.9416C128.699 38.8346 128.624 38.7613 128.566 38.7768Z" fill="#E0E0E0"/>
<path d="M128.31 37.9985C128.251 38.0179 128.234 38.1209 128.272 38.2293C128.309 38.3377 128.382 38.4057 128.436 38.3889C128.489 38.3721 128.512 38.2665 128.474 38.1581C128.436 38.0497 128.365 37.9777 128.31 37.9985Z" fill="#E0E0E0"/>
<path d="M128.034 37.2136C127.981 37.2304 127.963 37.3334 127.997 37.4405C128.031 37.5476 128.106 37.6209 128.165 37.6014C128.224 37.582 128.236 37.4816 128.202 37.3745C128.168 37.2674 128.109 37.1994 128.034 37.2136Z" fill="#E0E0E0"/>
<path d="M127.795 36.4366C127.736 36.4561 127.719 36.5591 127.756 36.6675C127.794 36.7759 127.866 36.8478 127.92 36.8271C127.975 36.8064 127.995 36.7086 127.958 36.6002C127.92 36.4918 127.864 36.4251 127.795 36.4366Z" fill="#E0E0E0"/>
<path d="M127.535 35.6571C127.48 35.6778 127.463 35.7808 127.496 35.8879C127.53 35.995 127.607 36.0643 127.664 36.0488C127.722 36.0333 127.736 35.9251 127.703 35.818C127.669 35.7109 127.592 35.6416 127.535 35.6571Z" fill="#E0E0E0"/>
<path d="M127.279 34.8788C127.221 34.8943 127.204 34.9974 127.242 35.1057C127.279 35.2141 127.351 35.2861 127.404 35.2693C127.458 35.2525 127.48 35.1468 127.443 35.0384C127.405 34.93 127.334 34.8581 127.279 34.8788Z" fill="#E0E0E0"/>
<path d="M126.83 34.2578C126.812 34.3126 126.862 34.3949 126.961 34.45C126.999 34.4698 127.04 34.4836 127.083 34.4908L127.038 34.4411C127.051 34.458 127.069 34.4706 127.089 34.4774C127.11 34.4842 127.131 34.4848 127.152 34.4792C127.186 34.4689 127.204 34.4272 127.189 34.3697L127.148 34.3213C127.12 34.2896 127.086 34.2634 127.048 34.2441C126.961 34.206 126.868 34.2097 126.83 34.2578Z" fill="#E0E0E0"/>
<path d="M126.111 33.8723C126.093 33.927 126.143 34.0094 126.244 34.0605C126.344 34.1117 126.443 34.1276 126.478 34.0612C126.514 33.9947 126.446 33.9241 126.342 33.8716C126.238 33.8191 126.125 33.8293 126.111 33.8723Z" fill="#E0E0E0"/>
<path d="M125.364 33.5037C125.346 33.5585 125.397 33.6408 125.501 33.6933C125.605 33.7457 125.7 33.7603 125.732 33.6926C125.763 33.6248 125.699 33.5555 125.595 33.503C125.491 33.4506 125.383 33.449 125.364 33.5037Z" fill="#E0E0E0"/>
<path d="M124.622 33.1233C124.603 33.1781 124.658 33.2617 124.758 33.3129C124.859 33.364 124.958 33.38 124.989 33.3122C125.021 33.2445 124.957 33.1751 124.857 33.124C124.756 33.0728 124.667 33.0778 124.622 33.1233Z" fill="#E0E0E0"/>
<path d="M123.91 32.7534C123.892 32.8082 123.943 32.8905 124.043 32.9417C124.143 32.9928 124.242 33.0087 124.274 32.941C124.305 32.8732 124.242 32.8039 124.141 32.7527C124.041 32.7016 123.935 32.7052 123.91 32.7534Z" fill="#E0E0E0"/>
<path d="M123.179 32.377C123.161 32.4317 123.212 32.5141 123.312 32.5652C123.412 32.6164 123.511 32.6323 123.543 32.5645C123.574 32.4968 123.511 32.4275 123.41 32.3763C123.31 32.3251 123.206 32.3249 123.179 32.377Z" fill="#E0E0E0"/>
<path d="M122.449 32.0006C122.43 32.0554 122.481 32.1377 122.581 32.1889C122.681 32.24 122.781 32.2559 122.812 32.1882C122.844 32.1204 122.78 32.0511 122.679 32C122.579 31.9488 122.475 31.9485 122.449 32.0006Z" fill="#E0E0E0"/>
<path d="M121.718 31.6243C121.699 31.679 121.75 31.7614 121.85 31.8125C121.951 31.8637 122.05 31.8796 122.081 31.8118C122.113 31.7441 122.049 31.6748 121.949 31.6236C121.848 31.5725 121.744 31.5722 121.718 31.6243Z" fill="#E0E0E0"/>
<path d="M120.987 31.2479C120.968 31.3027 121.019 31.385 121.119 31.4362C121.219 31.4873 121.319 31.5032 121.354 31.4368C121.389 31.3703 121.318 31.2984 121.218 31.2472C121.117 31.1961 121.013 31.1958 120.987 31.2479Z" fill="#E0E0E0"/>
<path d="M120.256 30.8714C120.237 30.9262 120.288 31.0085 120.392 31.061C120.497 31.1135 120.588 31.1268 120.623 31.0603C120.659 30.9939 120.591 30.9232 120.487 30.8708C120.383 30.8183 120.282 30.8193 120.256 30.8714Z" fill="#E0E0E0"/>
<path d="M119.525 30.4949C119.506 30.5497 119.557 30.632 119.661 30.6845C119.766 30.737 119.861 30.7516 119.892 30.6838C119.924 30.616 119.86 30.5467 119.756 30.4942C119.651 30.4418 119.555 30.4441 119.525 30.4949Z" fill="#E0E0E0"/>
<path d="M118.798 30.1067C118.779 30.1615 118.834 30.2451 118.934 30.2963C119.035 30.3474 119.134 30.3634 119.165 30.2956C119.197 30.2278 119.133 30.1585 119.033 30.1074C118.932 30.0562 118.824 30.0677 118.798 30.1067Z" fill="#E0E0E0"/>
<path d="M118.067 29.7434C118.048 29.7982 118.099 29.8805 118.199 29.9317C118.3 29.9828 118.399 29.9987 118.43 29.931C118.462 29.8632 118.398 29.7939 118.298 29.7428C118.198 29.6916 118.093 29.6913 118.067 29.7434Z" fill="#E0E0E0"/>
<path d="M117.336 29.367C117.318 29.4217 117.368 29.5041 117.469 29.5552C117.569 29.6064 117.668 29.6223 117.7 29.5545C117.731 29.4868 117.667 29.4174 117.567 29.3663C117.467 29.3151 117.362 29.3149 117.336 29.367Z" fill="#E0E0E0"/>
<path d="M116.605 28.9906C116.587 29.0453 116.637 29.1277 116.738 29.1788C116.838 29.23 116.937 29.2459 116.969 29.1781C117 29.1104 116.936 29.0411 116.836 28.9899C116.736 28.9388 116.63 28.9424 116.605 28.9906Z" fill="#E0E0E0"/>
<path d="M115.874 28.6142C115.856 28.6689 115.906 28.7512 116.007 28.8024C116.107 28.8536 116.206 28.8695 116.238 28.8017C116.269 28.734 116.205 28.6646 116.105 28.6135C116.005 28.5623 115.9 28.5621 115.874 28.6142Z" fill="#E0E0E0"/>
<path d="M115.143 28.2378C115.125 28.2925 115.175 28.3749 115.276 28.426C115.376 28.4772 115.475 28.4931 115.511 28.4267C115.546 28.3602 115.474 28.2883 115.374 28.2371C115.274 28.186 115.169 28.1857 115.143 28.2378Z" fill="#E0E0E0"/>
<path d="M114.412 27.8613C114.394 27.916 114.445 27.9983 114.549 28.0508C114.653 28.1033 114.748 28.1179 114.78 28.0501C114.811 27.9824 114.747 27.913 114.643 27.8606C114.539 27.8081 114.439 27.8091 114.412 27.8613Z" fill="#E0E0E0"/>
<path d="M113.681 27.485C113.663 27.5398 113.714 27.6221 113.818 27.6746C113.922 27.727 114.017 27.7417 114.049 27.6739C114.08 27.6061 114.017 27.5368 113.918 27.4818C113.819 27.4267 113.712 27.4342 113.681 27.485Z" fill="#E0E0E0"/>
<path d="M112.95 27.1084C112.932 27.1631 112.987 27.2468 113.087 27.2979C113.187 27.3491 113.286 27.365 113.318 27.2973C113.349 27.2295 113.286 27.1602 113.187 27.1051C113.088 27.0501 112.982 27.0537 112.95 27.1084Z" fill="#E0E0E0"/>
<path d="M112.223 26.7334C112.205 26.7881 112.256 26.8705 112.356 26.9216C112.456 26.9728 112.555 26.9887 112.587 26.9209C112.618 26.8532 112.555 26.7838 112.456 26.7288C112.357 26.6737 112.251 26.6773 112.223 26.7334Z" fill="#E0E0E0"/>
<path d="M111.496 26.3452C111.478 26.3999 111.529 26.4822 111.629 26.5334C111.729 26.5846 111.828 26.6005 111.86 26.5327C111.891 26.465 111.828 26.3956 111.729 26.3406C111.63 26.2855 111.52 26.3009 111.496 26.3452Z" fill="#E0E0E0"/>
<path d="M110.762 25.9806C110.743 26.0353 110.794 26.1176 110.894 26.1688C110.995 26.22 111.094 26.2359 111.125 26.1681C111.157 26.1004 111.093 26.031 110.994 25.976C110.895 25.9209 110.789 25.9245 110.762 25.9806Z" fill="#E0E0E0"/>
<path d="M110.031 25.6041C110.012 25.6589 110.063 25.7412 110.163 25.7924C110.264 25.8435 110.363 25.8594 110.394 25.7917C110.426 25.7239 110.363 25.6507 110.263 25.5995C110.163 25.5484 110.058 25.5481 110.031 25.6041Z" fill="#E0E0E0"/>
<path d="M109.3 25.2276C109.281 25.2824 109.332 25.3647 109.432 25.4158C109.533 25.467 109.632 25.4829 109.667 25.4165C109.703 25.35 109.632 25.2742 109.532 25.223C109.432 25.1719 109.325 25.1794 109.3 25.2276Z" fill="#E0E0E0"/>
<path d="M108.569 24.8514C108.55 24.9061 108.601 24.9884 108.705 25.0409C108.809 25.0934 108.905 25.108 108.936 25.0402C108.968 24.9725 108.905 24.8992 108.801 24.8468C108.697 24.7943 108.596 24.7953 108.569 24.8514Z" fill="#E0E0E0"/>
<path d="M107.799 24.797C107.811 24.8531 107.911 24.8782 108.018 24.8706C108.125 24.8631 108.206 24.7772 108.195 24.7211C108.183 24.6649 108.08 24.6347 107.976 24.6474C107.871 24.6602 107.785 24.7356 107.799 24.797Z" fill="#E0E0E0"/>
<path d="M106.999 24.9763C107.009 25.0364 107.11 25.0614 107.218 25.05C107.326 25.0385 107.406 24.9565 107.396 24.8965C107.386 24.8365 107.28 24.814 107.177 24.8228C107.074 24.8317 106.984 24.9189 106.999 24.9763Z" fill="#E0E0E0"/>
<path d="M106.198 25.1593C106.209 25.2154 106.308 25.2444 106.416 25.2329C106.525 25.2215 106.605 25.1395 106.593 25.0834C106.581 25.0273 106.478 24.997 106.374 25.0097C106.27 25.0225 106.182 25.1018 106.198 25.1593Z" fill="#E0E0E0"/>
<path d="M105.396 25.3424C105.407 25.3985 105.508 25.4236 105.615 25.4161C105.722 25.4085 105.803 25.3226 105.791 25.2665C105.78 25.2104 105.677 25.1801 105.572 25.1928C105.468 25.2056 105.382 25.281 105.396 25.3424Z" fill="#E0E0E0"/>
<path d="M104.596 25.5216C104.607 25.5777 104.706 25.6067 104.815 25.5953C104.923 25.5838 105.001 25.5057 104.991 25.4457C104.981 25.3857 104.875 25.3632 104.772 25.372C104.669 25.3809 104.564 25.4589 104.596 25.5216Z" fill="#E0E0E0"/>
<path d="M103.794 25.7047C103.806 25.7608 103.906 25.7859 104.013 25.7784C104.12 25.7708 104.201 25.6849 104.19 25.6288C104.178 25.5727 104.075 25.5424 103.971 25.5551C103.866 25.5679 103.778 25.6473 103.794 25.7047Z" fill="#E0E0E0"/>
<path d="M102.99 25.8826C103.004 25.9439 103.104 25.969 103.213 25.9576C103.321 25.9461 103.401 25.8641 103.389 25.808C103.378 25.7519 103.275 25.7216 103.166 25.733C103.058 25.7445 102.978 25.8265 102.99 25.8826Z" fill="#E0E0E0"/>
<path d="M102.184 26.0644C102.2 26.1219 102.299 26.1509 102.403 26.1381C102.508 26.1253 102.594 26.0499 102.58 25.9885C102.566 25.9272 102.468 25.9073 102.361 25.9149C102.254 25.9224 102.177 26.0096 102.184 26.0644Z" fill="#E0E0E0"/>
<path d="M101.387 26.2489C101.402 26.3063 101.503 26.3314 101.606 26.3225C101.709 26.3137 101.798 26.2304 101.782 26.173C101.767 26.1155 101.671 26.0879 101.563 26.0993C101.455 26.1108 101.376 26.1888 101.387 26.2489Z" fill="#E0E0E0"/>
<path d="M100.586 26.4281C100.601 26.4894 100.701 26.5145 100.805 26.5017C100.91 26.489 100.997 26.4096 100.982 26.3522C100.966 26.2947 100.871 26.2671 100.763 26.2785C100.655 26.29 100.575 26.3719 100.586 26.4281Z" fill="#E0E0E0"/>
<path d="M99.7847 26.6112C99.8002 26.6687 99.8993 26.6977 100.004 26.6849C100.108 26.6721 100.196 26.5928 100.18 26.5353C100.165 26.4779 100.068 26.4541 99.9612 26.4617C99.8542 26.4692 99.7731 26.5551 99.7847 26.6112Z" fill="#E0E0E0"/>
<path d="M98.9832 26.7942C98.9987 26.8516 99.0991 26.8767 99.2022 26.8678C99.3053 26.859 99.3943 26.7757 99.3788 26.7183C99.3633 26.6608 99.2681 26.6332 99.1598 26.6446C99.0515 26.6561 98.973 26.7341 98.9832 26.7942Z" fill="#E0E0E0"/>
<path d="M98.183 26.9735C98.1972 27.0349 98.2976 27.0599 98.402 27.0472C98.5064 27.0344 98.594 26.955 98.5798 26.8937C98.5657 26.8323 98.4679 26.8125 98.3608 26.82C98.2538 26.8276 98.1714 26.9174 98.183 26.9735Z" fill="#E0E0E0"/>
<path d="M97.5798 27.11C97.5824 27.1237 97.5878 27.1367 97.5955 27.1483C97.6033 27.1599 97.6133 27.1697 97.625 27.1773C97.6367 27.1849 97.6498 27.1901 97.6635 27.1925C97.6772 27.1949 97.6913 27.1944 97.7049 27.1912C97.7183 27.1882 97.7311 27.1825 97.7423 27.1745C97.7535 27.1664 97.7631 27.1562 97.7703 27.1444C97.7775 27.1326 97.7822 27.1195 97.7843 27.1059C97.7863 27.0922 97.7856 27.0783 97.7822 27.0649C97.7759 27.0378 97.7594 27.0142 97.7361 26.999C97.7128 26.9838 97.6844 26.9783 97.6571 26.9837C97.6305 26.9907 97.6076 27.0078 97.5932 27.0313C97.5788 27.0549 97.574 27.083 97.5798 27.11Z" fill="#E0E0E0"/>
<path d="M95.8079 33.9185C95.8213 33.9214 95.8351 33.9216 95.8485 33.9191C95.8619 33.9166 95.8747 33.9115 95.8862 33.904C95.8976 33.8965 95.9074 33.8868 95.9151 33.8754C95.9227 33.8641 95.9281 33.8514 95.9308 33.838C95.9349 33.81 95.9277 33.7815 95.9109 33.7587C95.8941 33.7359 95.869 33.7207 95.8411 33.7164C95.8275 33.7133 95.8134 33.7131 95.7997 33.7159C95.786 33.7187 95.7731 33.7243 95.7617 33.7324C95.7504 33.7405 95.7408 33.7509 95.7338 33.7629C95.7267 33.7749 95.7223 33.7883 95.7208 33.8022C95.7183 33.8156 95.7187 33.8294 95.7218 33.8427C95.7249 33.856 95.7307 33.8685 95.7389 33.8794C95.7471 33.8903 95.7574 33.8994 95.7693 33.9062C95.7812 33.9129 95.7943 33.9171 95.8079 33.9185Z" fill="#E0E0E0"/>
<path d="M95.7549 34.7363C95.8162 34.7352 95.8647 34.6427 95.8702 34.5357C95.8757 34.4287 95.8251 34.3334 95.7664 34.3267C95.7077 34.32 95.6592 34.4125 95.655 34.5286C95.6507 34.6447 95.6975 34.7388 95.7549 34.7363Z" fill="#E0E0E0"/>
<path d="M95.8192 35.5546C95.8753 35.543 95.916 35.4479 95.8928 35.3356C95.8697 35.2234 95.8242 35.1384 95.7668 35.1409C95.7094 35.1433 95.6674 35.2424 95.6932 35.3599C95.7189 35.4774 95.7605 35.561 95.8192 35.5546Z" fill="#E0E0E0"/>
<path d="M95.9749 36.3599C96.0324 36.3444 96.0574 36.244 96.0486 36.141C96.0397 36.0379 95.959 35.9541 95.899 35.9644C95.8389 35.9747 95.8139 36.0751 95.8253 36.1834C95.8368 36.2917 95.9188 36.3715 95.9749 36.3599Z" fill="#E0E0E0"/>
<path d="M96.2038 37.1421C96.2586 37.1214 96.2798 37.0197 96.2462 36.9126C96.2125 36.8055 96.141 36.7336 96.0822 36.753C96.0234 36.7724 96.0075 36.8715 96.0412 36.9786C96.0748 37.0857 96.1463 37.1576 96.2038 37.1421Z" fill="#E0E0E0"/>
<path d="M96.4612 37.9035C96.5161 37.8828 96.5294 37.7785 96.4906 37.674C96.4517 37.5695 96.3749 37.5002 96.3201 37.5209C96.2652 37.5416 96.248 37.6446 96.2907 37.7504C96.3335 37.8562 96.4259 37.9308 96.4612 37.9035Z" fill="#E0E0E0"/>
<path d="M96.7906 38.6715C96.8429 38.6455 96.8353 38.5385 96.8121 38.4393C96.7889 38.3401 96.686 38.2707 96.6312 38.2914C96.5763 38.3121 96.5669 38.4178 96.611 38.5197C96.6551 38.6215 96.7358 38.6922 96.7906 38.6715Z" fill="#E0E0E0"/>
<path d="M97.1122 39.4239C97.1683 39.3992 97.1764 39.2975 97.1284 39.1943C97.0805 39.0911 97.0023 39.0257 96.9514 39.0477C96.9005 39.0697 96.8871 39.1741 96.9338 39.2812C96.9805 39.3883 97.0599 39.4498 97.1122 39.4239Z" fill="#E0E0E0"/>
<path d="M97.4415 40.1659C97.4938 40.14 97.4863 40.033 97.45 39.9337C97.4137 39.8345 97.3226 39.769 97.2664 39.7936C97.2102 39.8183 97.2217 39.9266 97.258 40.0258C97.2942 40.1251 97.4049 40.1971 97.4415 40.1659Z" fill="#E0E0E0"/>
<path d="M97.8258 40.9001C97.8793 40.8703 97.8705 40.7672 97.8264 40.6653C97.7823 40.5634 97.6924 40.5071 97.6402 40.533C97.5879 40.559 97.5955 40.666 97.6356 40.7665C97.6758 40.8671 97.7709 40.9339 97.8258 40.9001Z" fill="#E0E0E0"/>
<path d="M98.2177 41.624C98.27 41.598 98.2624 41.491 98.2118 41.3956C98.1612 41.3002 98.0687 41.2387 98.0151 41.2685C97.9615 41.2984 97.9704 41.4015 98.0236 41.5021C98.0768 41.6027 98.168 41.6551 98.2177 41.624Z" fill="#E0E0E0"/>
<path d="M98.6491 42.3218C98.6987 42.2906 98.6938 42.1888 98.6301 42.0934C98.5664 41.998 98.4792 41.9469 98.4295 41.9781C98.3798 42.0093 98.3848 42.111 98.4485 42.2065C98.5121 42.3019 98.5981 42.3569 98.6491 42.3218Z" fill="#E0E0E0"/>
<path d="M99.1039 42.9885C99.151 42.9521 99.1486 42.8556 99.068 42.7588C98.9874 42.662 98.9131 42.624 98.8621 42.6591C98.8111 42.6942 98.8187 42.7881 98.8941 42.8875C98.9695 42.9869 99.0881 43.0354 99.1039 42.9885Z" fill="#E0E0E0"/>
<path d="M99.6318 43.6318C99.6802 43.5915 99.657 43.4923 99.5868 43.4033C99.5166 43.3144 99.4149 43.2802 99.3678 43.3297C99.3207 43.3791 99.3244 43.4587 99.4142 43.5542C99.5039 43.6497 99.5887 43.6695 99.6318 43.6318Z" fill="#E0E0E0"/>
<path d="M100.194 44.2256C100.234 44.1827 100.206 44.086 100.128 44.0075C100.05 43.929 99.9535 43.8923 99.909 43.9339C99.8645 43.9755 99.893 44.0721 99.9736 44.1559C100.054 44.2396 100.149 44.2672 100.194 44.2256Z" fill="#E0E0E0"/>
<path d="M100.794 44.7844C100.811 44.7336 100.794 44.6409 100.711 44.565C100.628 44.4891 100.526 44.4679 100.485 44.5109C100.445 44.5538 100.482 44.6492 100.57 44.7264C100.657 44.8036 100.753 44.8273 100.794 44.7844Z" fill="#E0E0E0"/>
<path d="M101.43 45.2989C101.449 45.2441 101.422 45.1566 101.336 45.0886C101.25 45.0205 101.144 44.998 101.106 45.0462C101.068 45.0944 101.111 45.1871 101.201 45.2565C101.291 45.3259 101.394 45.3431 101.43 45.2989Z" fill="#E0E0E0"/>
<path d="M102.088 45.7637C102.105 45.7129 102.074 45.6241 101.978 45.5612C101.881 45.4983 101.782 45.4955 101.751 45.5371C101.719 45.5788 101.765 45.6768 101.857 45.7383C101.95 45.7999 102.072 45.8107 102.088 45.7637Z" fill="#E0E0E0"/>
<path d="M102.811 46.2028C102.829 46.148 102.788 46.0644 102.69 46.0054C102.593 45.9464 102.495 45.9396 102.463 45.9944C102.432 46.0491 102.486 46.1327 102.584 46.1917C102.682 46.2507 102.769 46.2496 102.811 46.2028Z" fill="#E0E0E0"/>
<path d="M103.516 46.5792C103.534 46.5244 103.484 46.4421 103.383 46.3909C103.283 46.3398 103.188 46.3252 103.156 46.3929C103.125 46.4607 103.183 46.5326 103.288 46.5851C103.392 46.6375 103.492 46.6365 103.516 46.5792Z" fill="#E0E0E0"/>
<path d="M104.262 46.9217C104.281 46.867 104.221 46.7859 104.118 46.7426C104.015 46.6993 103.909 46.7029 103.887 46.7563C103.865 46.8098 103.925 46.8908 104.03 46.9394C104.136 46.9879 104.236 46.9739 104.262 46.9217Z" fill="#E0E0E0"/>
<path d="M105.018 47.2369C105.037 47.1822 104.968 47.1024 104.864 47.063C104.759 47.0236 104.655 47.0363 104.635 47.095C104.616 47.1537 104.682 47.2282 104.787 47.2637C104.893 47.2992 105 47.2786 105.018 47.2369Z" fill="#E0E0E0"/>
<path d="M105.797 47.4986C105.815 47.4439 105.74 47.3706 105.63 47.3338C105.521 47.297 105.421 47.3202 105.403 47.3749C105.384 47.4297 105.459 47.5069 105.566 47.5385C105.672 47.5701 105.783 47.5377 105.797 47.4986Z" fill="#E0E0E0"/>
<path d="M106.593 47.6926C106.612 47.6378 106.531 47.5672 106.423 47.5395C106.315 47.5118 106.211 47.5337 106.196 47.5937C106.18 47.6536 106.258 47.7191 106.366 47.7468C106.474 47.7745 106.575 47.7604 106.593 47.6926Z" fill="#E0E0E0"/>
<path d="M107.396 47.867C107.415 47.8123 107.325 47.7429 107.216 47.7191C107.106 47.6953 107.004 47.7264 106.992 47.7877C106.98 47.8489 107.06 47.9105 107.174 47.9317C107.289 47.9528 107.386 47.9244 107.396 47.867Z" fill="#E0E0E0"/>
<path d="M108.206 47.9957C108.225 47.941 108.128 47.8781 108.016 47.8621C107.904 47.8462 107.81 47.8798 107.799 47.9372C107.789 47.9946 107.872 48.0574 107.988 48.0747C108.104 48.092 108.198 48.0583 108.206 47.9957Z" fill="#E0E0E0"/>
<path d="M109.02 48.0866C109.039 48.0319 108.937 47.9716 108.827 47.9608C108.718 47.9501 108.619 47.9864 108.612 48.0451C108.605 48.1038 108.694 48.164 108.803 48.1747C108.913 48.1855 109.014 48.1453 109.02 48.0866Z" fill="#E0E0E0"/>
<path d="M109.834 48.1515C109.853 48.0968 109.751 48.0365 109.636 48.0284C109.521 48.0202 109.429 48.063 109.426 48.123C109.423 48.1831 109.51 48.2342 109.625 48.2423C109.74 48.2504 109.833 48.2076 109.834 48.1515Z" fill="#E0E0E0"/>
<path d="M110.653 48.1876C110.672 48.1329 110.564 48.0791 110.453 48.0723C110.342 48.0655 110.248 48.1122 110.245 48.1722C110.242 48.2322 110.33 48.2833 110.446 48.2875C110.562 48.2918 110.647 48.2594 110.653 48.1876Z" fill="#E0E0E0"/>
<path d="M111.475 48.2027C111.494 48.148 111.382 48.0929 111.268 48.0939C111.155 48.0949 111.066 48.139 111.063 48.199C111.06 48.259 111.153 48.3075 111.27 48.3079C111.388 48.3082 111.473 48.2627 111.475 48.2027Z" fill="#E0E0E0"/>
<path d="M112.297 48.1921C112.295 48.1346 112.202 48.0861 112.089 48.0871C111.975 48.0881 111.884 48.1401 111.885 48.2014C111.886 48.2627 111.98 48.3073 112.095 48.3024C112.21 48.2975 112.299 48.2534 112.297 48.1921Z" fill="#E0E0E0"/>
<path d="M113.116 48.1537C113.113 48.0963 113.019 48.0517 112.908 48.0579C112.797 48.0641 112.706 48.1161 112.707 48.1774C112.708 48.2387 112.803 48.2794 112.918 48.2745C113.033 48.2696 113.119 48.2203 113.116 48.1537Z" fill="#E0E0E0"/>
<path d="M113.93 48.0881C113.923 48.0293 113.828 47.9886 113.711 48.0144C113.593 48.0402 113.51 48.0817 113.512 48.1391C113.515 48.1965 113.614 48.2385 113.735 48.2141C113.857 48.1896 113.944 48.1494 113.93 48.0881Z" fill="#E0E0E0"/>
<path d="M114.755 48.0042C114.744 47.9441 114.648 47.9073 114.532 47.9292C114.416 47.9511 114.337 48.0031 114.344 48.0618C114.35 48.1205 114.446 48.1573 114.563 48.1354C114.679 48.1136 114.762 48.059 114.755 48.0042Z" fill="#E0E0E0"/>
<path d="M115.565 47.8851C115.555 47.8251 115.457 47.7922 115.346 47.8115C115.235 47.8307 115.15 47.8892 115.16 47.9493C115.171 48.0093 115.265 48.0409 115.379 48.0229C115.494 48.005 115.577 47.9413 115.565 47.8851Z" fill="#E0E0E0"/>
<path d="M116.373 47.7345C116.362 47.6784 116.262 47.6494 116.154 47.6609C116.046 47.6723 115.963 47.7491 115.975 47.8052C115.987 47.8613 116.084 47.8942 116.194 47.8788C116.304 47.8635 116.387 47.7959 116.373 47.7345Z" fill="#E0E0E0"/>
<path d="M117.156 47.5541C117.141 47.4967 117.041 47.4716 116.937 47.4804C116.834 47.4893 116.749 47.5739 116.761 47.63C116.773 47.6861 116.876 47.7164 116.98 47.7037C117.084 47.6909 117.192 47.6181 117.156 47.5541Z" fill="#E0E0E0"/>
<path d="M117.973 47.354C117.952 47.2991 117.851 47.2741 117.746 47.3038C117.64 47.3335 117.56 47.4025 117.574 47.4638C117.588 47.5252 117.692 47.5424 117.801 47.514C117.911 47.4856 117.988 47.4114 117.973 47.354Z" fill="#E0E0E0"/>
<path d="M118.756 47.1212C118.736 47.0625 118.633 47.0452 118.526 47.0789C118.419 47.1125 118.347 47.1841 118.363 47.2415C118.378 47.299 118.481 47.3162 118.592 47.2839C118.703 47.2516 118.773 47.1748 118.756 47.1212Z" fill="#E0E0E0"/>
<path d="M119.53 46.8507C119.51 46.7959 119.405 46.7826 119.301 46.8214C119.196 46.8603 119.124 46.9318 119.144 46.9906C119.163 47.0494 119.267 47.0627 119.372 47.0238C119.476 46.985 119.552 46.9017 119.53 46.8507Z" fill="#E0E0E0"/>
<path d="M120.288 46.5527C120.267 46.4979 120.163 46.4845 120.061 46.5286C119.959 46.5727 119.89 46.6495 119.91 46.7043C119.931 46.7592 120.043 46.7491 120.141 46.7297C120.239 46.7104 120.314 46.605 120.288 46.5527Z" fill="#E0E0E0"/>
<path d="M121.039 46.2219C121.013 46.1697 120.906 46.1772 120.808 46.2096C120.71 46.2419 120.639 46.3357 120.665 46.3879C120.691 46.4402 120.798 46.4326 120.895 46.4042C120.992 46.3758 121.067 46.2794 121.039 46.2219Z" fill="#E0E0E0"/>
<path d="M121.776 45.8691C121.75 45.8168 121.643 45.8244 121.547 45.862C121.452 45.8995 121.385 45.9946 121.411 46.0469C121.437 46.0991 121.544 46.0916 121.64 46.054C121.735 46.0164 121.803 45.9174 121.776 45.8691Z" fill="#E0E0E0"/>
<path d="M122.506 45.4967C122.476 45.4431 122.369 45.4506 122.273 45.4921C122.176 45.5336 122.113 45.63 122.143 45.6835C122.173 45.7371 122.276 45.7283 122.373 45.6868C122.469 45.6453 122.532 45.5489 122.506 45.4967Z" fill="#E0E0E0"/>
<path d="M123.21 45.0849C123.179 45.0352 123.074 45.0388 122.978 45.0895C122.883 45.1401 122.821 45.2326 122.852 45.2822C122.884 45.3319 122.985 45.3269 123.081 45.2763C123.176 45.2257 123.252 45.1554 123.21 45.0849Z" fill="#E0E0E0"/>
<path d="M123.937 44.6981C123.907 44.6445 123.8 44.6521 123.703 44.7066C123.607 44.7611 123.55 44.851 123.581 44.9007C123.613 44.9503 123.714 44.9454 123.811 44.8908C123.908 44.8363 123.964 44.7464 123.937 44.6981Z" fill="#E0E0E0"/>
<path d="M124.645 44.2616C124.614 44.212 124.508 44.2156 124.414 44.2754C124.32 44.3351 124.265 44.4211 124.291 44.4733C124.317 44.5256 124.428 44.5194 124.523 44.4557C124.619 44.392 124.671 44.3269 124.645 44.2616Z" fill="#E0E0E0"/>
<path d="M125.335 43.8408C125.304 43.7912 125.202 43.7961 125.103 43.8585C125.004 43.9208 124.956 44.0094 124.988 44.0591C125.019 44.1088 125.121 44.1038 125.22 44.0415C125.319 43.9791 125.355 43.8866 125.335 43.8408Z" fill="#E0E0E0"/>
<path d="M126.014 43.4159C125.982 43.3663 125.881 43.3712 125.784 43.4388C125.687 43.5064 125.641 43.591 125.672 43.6407C125.704 43.6904 125.805 43.6854 125.902 43.6178C125.999 43.5503 126.061 43.4317 126.014 43.4159Z" fill="#E0E0E0"/>
<path d="M126.701 42.9377C126.669 42.8919 126.568 42.893 126.474 42.9658C126.38 43.0386 126.33 43.122 126.363 43.1677C126.395 43.2135 126.495 43.2124 126.592 43.1448C126.689 43.0773 126.736 42.9887 126.701 42.9377Z" fill="#E0E0E0"/>
<path d="M127.376 42.4724C127.339 42.4253 127.243 42.4277 127.143 42.5031C127.044 42.5785 127.005 42.6567 127.04 42.7077C127.075 42.7586 127.173 42.7524 127.268 42.6757C127.364 42.5989 127.412 42.5195 127.376 42.4724Z" fill="#E0E0E0"/>
<path d="M128.041 41.9954C128.006 41.9444 127.908 41.9506 127.812 42.0274C127.717 42.1041 127.676 42.1862 127.707 42.2358C127.739 42.2855 127.84 42.2805 127.937 42.1999C128.034 42.1193 128.077 42.0424 128.041 41.9954Z" fill="#E0E0E0"/>
<path d="M128.697 41.5066C128.662 41.4556 128.564 41.4619 128.471 41.5438C128.378 41.6258 128.335 41.7027 128.372 41.7497C128.408 41.7968 128.505 41.7944 128.601 41.7138C128.698 41.6332 128.749 41.5589 128.697 41.5066Z" fill="#E0E0E0"/>
<path d="M129.348 41.0073C129.312 40.9602 129.215 40.9626 129.121 41.0484C129.027 41.1343 128.989 41.2086 129.025 41.2556C129.062 41.3027 129.158 41.3004 129.252 41.2145C129.347 41.1286 129.381 41.0661 129.348 41.0073Z" fill="#E0E0E0"/>
<path d="M129.765 40.4292C129.706 40.4486 129.694 40.549 129.731 40.6574L129.771 40.5401L129.759 40.5753C129.747 40.594 129.74 40.6155 129.738 40.6378C129.729 40.652 129.724 40.6684 129.724 40.6852C129.724 40.7021 129.728 40.7186 129.736 40.7331C129.748 40.7461 129.763 40.7559 129.779 40.7614C129.796 40.767 129.813 40.7681 129.83 40.7646C129.853 40.759 129.875 40.7503 129.896 40.7387L129.928 40.7192L129.968 40.6019C129.896 40.4778 129.82 40.4084 129.765 40.4292Z" fill="#E0E0E0"/>
<path d="M129.492 39.6496C129.437 39.6703 129.419 39.7733 129.457 39.8817C129.495 39.9901 129.571 40.0595 129.626 40.0387C129.681 40.018 129.698 39.915 129.659 39.8105C129.621 39.706 129.55 39.6302 129.492 39.6496Z" fill="#E0E0E0"/>
<path d="M129.217 38.8739C129.162 38.8946 129.146 38.9938 129.184 39.1021C129.221 39.2105 129.298 39.2799 129.352 39.2631C129.405 39.2463 129.424 39.1393 129.386 39.0309C129.349 38.9225 129.276 38.8545 129.217 38.8739Z" fill="#E0E0E0"/>
<path d="M128.952 38.0968C128.893 38.1163 128.88 38.2206 128.917 38.329C128.955 38.4374 129.028 38.5054 129.086 38.486C129.145 38.4666 129.157 38.3662 129.12 38.2578C129.082 38.1494 129.005 38.08 128.952 38.0968Z" fill="#E0E0E0"/>
<path d="M128.677 37.3211C128.622 37.3418 128.605 37.4448 128.644 37.5493C128.683 37.6538 128.757 37.7309 128.812 37.7102C128.867 37.6895 128.884 37.5865 128.846 37.4781C128.809 37.3697 128.736 37.3016 128.677 37.3211Z" fill="#E0E0E0"/>
<path d="M128.407 36.5466C128.353 36.5635 128.336 36.6665 128.373 36.7749C128.411 36.8833 128.488 36.9526 128.542 36.9319C128.597 36.9112 128.613 36.8121 128.576 36.7037C128.538 36.5953 128.461 36.5259 128.407 36.5466Z" fill="#E0E0E0"/>
<path d="M128.137 35.7683C128.079 35.7877 128.065 35.892 128.104 35.9965C128.143 36.101 128.213 36.1768 128.272 36.1574C128.331 36.138 128.344 36.0337 128.305 35.9292C128.266 35.8247 128.192 35.7475 128.137 35.7683Z" fill="#E0E0E0"/>
<path d="M127.863 34.9927C127.808 35.0134 127.792 35.1125 127.83 35.2209C127.867 35.3293 127.944 35.3987 127.999 35.3779C128.054 35.3572 128.07 35.2581 128.032 35.1497C127.994 35.0413 127.918 34.972 127.863 34.9927Z" fill="#E0E0E0"/>
<path d="M127.594 34.2143C127.539 34.235 127.521 34.338 127.559 34.4464C127.597 34.5548 127.673 34.6242 127.728 34.6034C127.783 34.5827 127.8 34.4797 127.761 34.3752C127.723 34.2707 127.648 34.1935 127.594 34.2143Z" fill="#E0E0E0"/>
<path d="M126.981 33.7299C126.963 33.7846 127.014 33.8669 127.114 33.9181C127.214 33.9692 127.314 33.9852 127.345 33.9174C127.376 33.8496 127.313 33.7803 127.212 33.7292C127.112 33.678 127.006 33.6816 126.981 33.7299Z" fill="#E0E0E0"/>
<path d="M126.251 33.3535C126.232 33.4083 126.283 33.4906 126.382 33.5457C126.481 33.6007 126.581 33.6127 126.613 33.545C126.644 33.4772 126.581 33.4079 126.482 33.3528C126.383 33.2978 126.277 33.3014 126.251 33.3535Z" fill="#E0E0E0"/>
<path d="M125.521 32.9731C125.503 33.0279 125.553 33.1102 125.654 33.1614C125.754 33.2125 125.853 33.2284 125.885 33.1607C125.916 33.0929 125.852 33.0236 125.752 32.9724C125.652 32.9213 125.56 32.921 125.521 32.9731Z" fill="#E0E0E0"/>
<path d="M124.801 32.5914C124.782 32.6462 124.833 32.7285 124.932 32.7836C125.031 32.8386 125.131 32.8506 125.163 32.7829C125.194 32.7151 125.134 32.6471 125.032 32.5907C124.929 32.5344 124.819 32.5367 124.801 32.5914Z" fill="#E0E0E0"/>
<path d="M124.059 32.2073C124.041 32.262 124.092 32.3443 124.192 32.3955C124.292 32.4466 124.391 32.4626 124.427 32.3961C124.462 32.3297 124.395 32.259 124.29 32.2066C124.186 32.1541 124.078 32.1525 124.059 32.2073Z" fill="#E0E0E0"/>
<path d="M123.319 31.819C123.301 31.8738 123.35 31.96 123.451 32.0112C123.551 32.0623 123.65 32.0783 123.685 32.0118C123.721 31.9454 123.653 31.8747 123.554 31.8197C123.455 31.7646 123.365 31.7735 123.319 31.819Z" fill="#E0E0E0"/>
<path d="M122.605 31.444C122.587 31.4987 122.638 31.5811 122.738 31.6322C122.838 31.6834 122.941 31.7006 122.971 31.6368C123.002 31.5729 122.94 31.4958 122.84 31.4446C122.74 31.3935 122.634 31.3971 122.605 31.444Z" fill="#E0E0E0"/>
<path d="M121.881 31.061C121.861 31.1197 121.908 31.2007 122.012 31.2532C122.116 31.3056 122.212 31.3203 122.243 31.2525C122.275 31.1847 122.211 31.1154 122.111 31.0643C122.01 31.0131 121.907 31.0089 121.881 31.061Z" fill="#E0E0E0"/>
<path d="M121.151 30.6806C121.133 30.7353 121.184 30.8176 121.284 30.8688C121.384 30.92 121.483 30.9359 121.514 30.872C121.544 30.8082 121.483 30.731 121.382 30.6799C121.282 30.6287 121.178 30.6285 121.151 30.6806Z" fill="#E0E0E0"/>
<path d="M120.423 30.2965C120.403 30.3552 120.454 30.4375 120.554 30.4887C120.655 30.5398 120.754 30.5558 120.785 30.488C120.817 30.4202 120.753 30.3509 120.653 30.2998C120.552 30.2486 120.455 30.2288 120.423 30.2965Z" fill="#E0E0E0"/>
<path d="M119.693 29.9161C119.675 29.9709 119.726 30.0532 119.825 30.1083C119.924 30.1633 120.024 30.1754 120.056 30.1076C120.087 30.0398 120.023 29.9705 119.924 29.9155C119.825 29.8604 119.72 29.864 119.693 29.9161Z" fill="#E0E0E0"/>
<path d="M118.964 29.5357C118.945 29.5905 118.996 29.6728 119.096 29.724C119.197 29.7751 119.296 29.791 119.327 29.7233C119.359 29.6555 119.299 29.5875 119.195 29.5351C119.091 29.4826 118.991 29.4797 118.964 29.5357Z" fill="#E0E0E0"/>
<path d="M118.236 29.1516C118.217 29.2063 118.268 29.2886 118.367 29.3437C118.466 29.3988 118.566 29.4108 118.602 29.3443C118.637 29.2779 118.569 29.2073 118.47 29.1522C118.371 29.0971 118.262 29.0994 118.236 29.1516Z" fill="#E0E0E0"/>
<path d="M117.506 28.7713C117.488 28.826 117.538 28.9084 117.639 28.9595C117.739 29.0107 117.838 29.0266 117.873 28.9602C117.909 28.8937 117.841 28.8231 117.741 28.7719C117.64 28.7208 117.537 28.7166 117.506 28.7713Z" fill="#E0E0E0"/>
<path d="M116.778 28.387C116.759 28.4417 116.81 28.5241 116.913 28.5804C117.016 28.6368 117.112 28.6475 117.144 28.5798C117.175 28.512 117.112 28.4427 117.013 28.3876C116.914 28.3326 116.808 28.3362 116.778 28.387Z" fill="#E0E0E0"/>
<path d="M116.052 28.008C116.033 28.0627 116.084 28.145 116.184 28.1962C116.285 28.2474 116.384 28.2633 116.415 28.1955C116.447 28.1278 116.383 28.0584 116.283 28.0073C116.182 27.9561 116.078 27.9558 116.052 28.008Z" fill="#E0E0E0"/>
<path d="M115.321 27.6316C115.303 27.6864 115.352 27.7726 115.452 27.8238C115.553 27.8749 115.652 27.8908 115.683 27.8231C115.715 27.7553 115.651 27.686 115.552 27.6309C115.453 27.5759 115.35 27.5717 115.321 27.6316Z" fill="#E0E0E0"/>
<path d="M114.594 27.2433C114.576 27.2981 114.626 27.3804 114.727 27.4315C114.827 27.4827 114.926 27.4986 114.956 27.4348C114.986 27.3709 114.925 27.2938 114.825 27.2426C114.725 27.1915 114.62 27.1912 114.594 27.2433Z" fill="#E0E0E0"/>
<path d="M113.866 26.8591C113.846 26.9178 113.897 27.0001 113.997 27.0513C114.097 27.1024 114.196 27.1184 114.228 27.0506C114.259 26.9828 114.196 26.9135 114.095 26.8624C113.995 26.8112 113.892 26.807 113.866 26.8591Z" fill="#E0E0E0"/>
<path d="M113.141 26.4632C113.123 26.5179 113.174 26.6002 113.273 26.6553C113.372 26.7104 113.472 26.7224 113.507 26.6559C113.543 26.5895 113.477 26.5149 113.372 26.4625C113.268 26.41 113.162 26.4267 113.141 26.4632Z" fill="#E0E0E0"/>
<path d="M112.408 26.0947C112.388 26.1533 112.439 26.2357 112.539 26.2868C112.639 26.338 112.739 26.3539 112.774 26.2875C112.809 26.221 112.742 26.1504 112.641 26.0992C112.541 26.0481 112.434 26.0426 112.408 26.0947Z" fill="#E0E0E0"/>
<path d="M111.678 25.7143C111.66 25.769 111.71 25.8513 111.809 25.9064C111.909 25.9615 112.013 25.9748 112.044 25.907C112.076 25.8393 112.012 25.77 111.913 25.7149C111.814 25.6598 111.708 25.6635 111.678 25.7143Z" fill="#E0E0E0"/>
<path d="M110.949 25.334C110.93 25.3887 110.981 25.471 111.085 25.5235C111.189 25.576 111.285 25.5906 111.316 25.5228C111.348 25.4551 111.284 25.3857 111.184 25.3346C111.083 25.2834 110.974 25.2988 110.949 25.334Z" fill="#E0E0E0"/>
<path d="M110.224 24.951C110.206 25.0058 110.257 25.0881 110.356 25.1432C110.455 25.1982 110.555 25.2103 110.586 25.1425C110.618 25.0747 110.554 25.0054 110.455 24.9504C110.356 24.8953 110.25 24.8989 110.224 24.951Z" fill="#E0E0E0"/>
<path d="M109.495 24.5707C109.476 24.6254 109.527 24.7077 109.627 24.7589C109.728 24.81 109.827 24.826 109.858 24.7582C109.89 24.6904 109.826 24.6211 109.726 24.57C109.625 24.5188 109.522 24.5146 109.495 24.5707Z" fill="#E0E0E0"/>
<path d="M108.766 24.1864C108.748 24.2411 108.799 24.3235 108.898 24.3785C108.997 24.4336 109.097 24.4456 109.129 24.3779C109.16 24.3101 109.096 24.2408 108.997 24.1857C108.898 24.1306 108.794 24.1304 108.766 24.1864Z" fill="#E0E0E0"/>
<path d="M108.009 24.0448C108.019 24.1048 108.119 24.1299 108.228 24.1184C108.275 24.1074 108.319 24.0866 108.357 24.0574L108.306 24.0403C108.324 24.0428 108.342 24.0401 108.359 24.0325C108.375 24.0249 108.389 24.0128 108.399 23.9975C108.408 23.9702 108.419 23.9389 108.38 23.8996L108.329 23.8825C108.281 23.8727 108.231 23.8739 108.184 23.8861C108.073 23.9184 107.993 23.9873 108.009 24.0448Z" fill="#E0E0E0"/>
<path d="M107.204 24.2357C107.22 24.2932 107.32 24.3182 107.427 24.3107C107.534 24.3032 107.617 24.2134 107.601 24.1559C107.586 24.0985 107.485 24.0734 107.382 24.0823C107.279 24.0911 107.173 24.173 107.204 24.2357Z" fill="#E0E0E0"/>
<path d="M106.406 24.4241C106.421 24.4815 106.52 24.5105 106.625 24.4977C106.729 24.485 106.813 24.4043 106.801 24.3481C106.789 24.292 106.686 24.2617 106.582 24.2745C106.478 24.2873 106.394 24.3679 106.406 24.4241Z" fill="#E0E0E0"/>
<path d="M105.605 24.6163C105.621 24.6737 105.721 24.6988 105.831 24.6704C105.94 24.642 106.019 24.5769 106.007 24.5208C105.996 24.4647 105.891 24.4383 105.788 24.4471C105.685 24.456 105.594 24.5601 105.605 24.6163Z" fill="#E0E0E0"/>
<path d="M104.787 24.798C104.802 24.8555 104.901 24.8845 105.006 24.8717C105.11 24.8589 105.194 24.7783 105.184 24.7182C105.173 24.6582 105.068 24.6357 104.954 24.6628C104.841 24.6899 104.803 24.7511 104.787 24.798Z" fill="#E0E0E0"/>
<path d="M104.006 24.997C104.017 25.0531 104.118 25.0781 104.231 25.0511C104.345 25.024 104.42 24.9576 104.404 24.9002C104.389 24.8427 104.292 24.819 104.185 24.8265C104.078 24.8341 103.99 24.9395 104.006 24.997Z" fill="#E0E0E0"/>
<path d="M103.207 25.1851C103.219 25.2413 103.319 25.2663 103.426 25.2588C103.533 25.2512 103.614 25.1653 103.6 25.104C103.586 25.0426 103.484 25.0215 103.381 25.0303C103.278 25.0392 103.191 25.1277 103.207 25.1851Z" fill="#E0E0E0"/>
<path d="M102.415 25.3801C102.43 25.4375 102.53 25.4626 102.64 25.4342C102.75 25.4057 102.832 25.342 102.817 25.2846C102.801 25.2271 102.701 25.2021 102.598 25.2109C102.495 25.2198 102.393 25.3161 102.415 25.3801Z" fill="#E0E0E0"/>
<path d="M101.604 25.5644C101.619 25.6219 101.72 25.6469 101.823 25.6381C101.926 25.6292 102.011 25.5446 102.001 25.4846C101.99 25.4245 101.885 25.4021 101.775 25.4305C101.665 25.4589 101.592 25.5083 101.604 25.5644Z" fill="#E0E0E0"/>
<path d="M100.804 25.7568C100.819 25.8142 100.919 25.8393 101.023 25.8304C101.126 25.8215 101.211 25.737 101.199 25.6808C101.187 25.6247 101.083 25.5983 100.98 25.6072C100.877 25.616 100.789 25.6954 100.804 25.7568Z" fill="#E0E0E0"/>
<path d="M99.9993 25.9606C100.011 26.0168 100.115 26.0432 100.218 26.0343C100.321 26.0254 100.406 25.9409 100.392 25.8795C100.378 25.8182 100.28 25.7983 100.173 25.8059C100.066 25.8134 99.989 25.8876 99.9993 25.9606Z" fill="#E0E0E0"/>
<path d="M99.2068 26.1295C99.2184 26.1857 99.3188 26.2107 99.4323 26.1836C99.5459 26.1565 99.6205 26.0902 99.605 26.0327C99.5895 25.9753 99.493 25.9516 99.386 25.9591C99.279 25.9666 99.19 26.076 99.2068 26.1295Z" fill="#E0E0E0"/>
<path d="M98.4052 26.3256C98.4167 26.3817 98.5171 26.4068 98.6241 26.3992C98.7312 26.3917 98.8123 26.3058 98.7981 26.2444C98.7839 26.1831 98.6822 26.1619 98.5725 26.1903C98.4629 26.2188 98.3831 26.2877 98.4052 26.3256Z" fill="#E0E0E0"/>
<path d="M97.8047 26.4675C97.8109 26.4946 97.8275 26.5182 97.8508 26.5334C97.8741 26.5485 97.9024 26.554 97.9297 26.5487C97.943 26.5453 97.9554 26.5392 97.9664 26.5309C97.9773 26.5226 97.9864 26.5122 97.9932 26.5003C98.0001 26.4884 98.0045 26.4753 98.0062 26.4617C98.0079 26.4481 98.0068 26.4343 98.0031 26.4211C97.9969 26.394 97.9804 26.3703 97.957 26.3552C97.9337 26.34 97.9054 26.3345 97.8781 26.3398C97.8645 26.3427 97.8517 26.3485 97.8405 26.3566C97.8293 26.3648 97.8199 26.3753 97.8129 26.3873C97.806 26.3993 97.8017 26.4127 97.8003 26.4265C97.7989 26.4403 97.8004 26.4543 97.8047 26.4675Z" fill="#E0E0E0"/>
<path d="M103.828 45.4567C103.773 45.4383 103.711 45.5347 103.699 45.6481C103.687 45.7616 103.719 45.8596 103.778 45.8662C103.836 45.8729 103.895 45.7883 103.911 45.6761C103.927 45.564 103.887 45.4634 103.828 45.4567Z" fill="#E0E0E0"/>
<path d="M103.933 44.6389C103.879 44.6205 103.816 44.7169 103.8 44.829C103.784 44.9412 103.82 45.0404 103.879 45.0471C103.937 45.0538 104 44.9705 104.012 44.857C104.024 44.7435 103.992 44.6456 103.933 44.6389Z" fill="#E0E0E0"/>
<path d="M104.047 43.8238C103.992 43.8053 103.929 43.9017 103.913 44.0139C103.897 44.126 103.937 44.2266 103.996 44.2333C104.055 44.24 104.113 44.1553 104.126 44.0419C104.138 43.9284 104.093 43.8265 104.047 43.8238Z" fill="#E0E0E0"/>
<path d="M104.13 43.0203C104.075 43.0019 104.012 43.0983 104 43.2117C103.988 43.3252 104.02 43.4232 104.079 43.4298C104.138 43.4365 104.197 43.3519 104.213 43.2397C104.228 43.1276 104.195 43.0074 104.13 43.0203Z" fill="#E0E0E0"/>
<path d="M104.236 42.1855C104.181 42.1671 104.119 42.2635 104.106 42.377C104.094 42.4904 104.127 42.5884 104.185 42.5951C104.244 42.6017 104.303 42.5171 104.319 42.4049C104.335 42.2928 104.295 42.2052 104.236 42.1855Z" fill="#E0E0E0"/>
<path d="M104.347 41.3521C104.292 41.3337 104.229 41.4301 104.213 41.5423C104.197 41.6544 104.237 41.755 104.296 41.7617C104.355 41.7683 104.414 41.6837 104.426 41.5702C104.438 41.4568 104.401 41.3705 104.347 41.3521Z" fill="#E0E0E0"/>
<path d="M104.444 40.5449C104.389 40.5265 104.326 40.6229 104.31 40.735C104.295 40.8472 104.335 40.9478 104.393 40.9545C104.452 40.9611 104.511 40.8765 104.523 40.763C104.535 40.6495 104.508 40.536 104.444 40.5449Z" fill="#E0E0E0"/>
<path d="M104.553 39.7284C104.499 39.71 104.436 39.8064 104.424 39.9199C104.412 40.0333 104.444 40.1313 104.503 40.138C104.561 40.1446 104.62 40.06 104.636 39.9478C104.652 39.8357 104.604 39.7325 104.553 39.7284Z" fill="#E0E0E0"/>
<path d="M104.651 38.9079C104.596 38.8895 104.533 38.9859 104.517 39.0981C104.501 39.2102 104.537 39.3095 104.596 39.3162C104.655 39.3228 104.718 39.2395 104.73 39.126C104.742 39.0125 104.709 38.9146 104.651 38.9079Z" fill="#E0E0E0"/>
<path d="M104.752 38.0889C104.697 38.0705 104.635 38.1668 104.619 38.279C104.603 38.3912 104.643 38.4917 104.702 38.4984C104.76 38.5051 104.819 38.4204 104.833 38.3031C104.846 38.1857 104.811 38.0956 104.752 38.0889Z" fill="#E0E0E0"/>
<path d="M104.854 37.2698C104.799 37.2514 104.736 37.3478 104.724 37.4612C104.712 37.5747 104.744 37.6727 104.803 37.6793C104.862 37.686 104.921 37.6014 104.938 37.4853C104.955 37.3692 104.912 37.2765 104.854 37.2698Z" fill="#E0E0E0"/>
<path d="M104.955 36.4508C104.9 36.4324 104.837 36.5288 104.825 36.6423C104.813 36.7557 104.847 36.8498 104.904 36.8604C104.962 36.871 105.022 36.7824 105.039 36.6663C105.056 36.5503 105.017 36.4588 104.955 36.4508Z" fill="#E0E0E0"/>
<path d="M105.06 35.6331C105.005 35.6147 104.943 35.711 104.927 35.8232C104.911 35.9354 104.952 36.032 105.01 36.0426C105.067 36.0532 105.127 35.9646 105.141 35.8473C105.154 35.7299 105.119 35.6397 105.06 35.6331Z" fill="#E0E0E0"/>
<path d="M105.161 34.8138C105.107 34.7954 105.044 34.8918 105.028 35.0039C105.012 35.1161 105.053 35.2128 105.111 35.2233C105.168 35.2339 105.23 35.1415 105.246 35.0293C105.262 34.9171 105.22 34.8205 105.161 34.8138Z" fill="#E0E0E0"/>
<path d="M105.263 33.995C105.208 33.9765 105.145 34.0729 105.133 34.1864C105.121 34.2999 105.155 34.3939 105.212 34.4045C105.27 34.4151 105.331 34.3226 105.347 34.2105C105.363 34.0983 105.322 34.0016 105.263 33.995Z" fill="#E0E0E0"/>
<path d="M105.368 33.1771C105.313 33.1587 105.25 33.2551 105.234 33.3673C105.219 33.4794 105.256 33.5748 105.317 33.5867C105.379 33.5986 105.436 33.5048 105.448 33.3913C105.46 33.2778 105.427 33.1838 105.368 33.1771Z" fill="#E0E0E0"/>
<path d="M105.47 32.358C105.415 32.3396 105.352 32.4359 105.336 32.5481C105.32 32.6603 105.362 32.7569 105.419 32.7675C105.476 32.7781 105.538 32.6856 105.55 32.5722C105.562 32.4587 105.528 32.3647 105.47 32.358Z" fill="#E0E0E0"/>
<path d="M105.567 31.5377C105.512 31.5193 105.449 31.6157 105.437 31.7291C105.425 31.8426 105.459 31.9366 105.516 31.9472C105.574 31.9578 105.635 31.8654 105.651 31.7532C105.667 31.641 105.63 31.5457 105.567 31.5377Z" fill="#E0E0E0"/>
<path d="M105.678 30.7172C105.619 30.6975 105.555 30.7977 105.543 30.9112C105.531 31.0247 105.564 31.1187 105.622 31.1293C105.679 31.1399 105.741 31.0474 105.757 30.9353C105.772 30.8231 105.735 30.7278 105.678 30.7172Z" fill="#E0E0E0"/>
<path d="M105.779 29.8982C105.724 29.8798 105.66 29.9801 105.644 30.0923C105.628 30.2044 105.669 30.3011 105.728 30.3078C105.787 30.3144 105.846 30.2298 105.858 30.1163C105.87 30.0028 105.836 29.9088 105.779 29.8982Z" fill="#E0E0E0"/>
<path d="M105.845 29.0802C105.794 29.0631 105.736 29.1699 105.737 29.2834C105.735 29.3137 105.738 29.3442 105.746 29.3735C105.757 29.4466 105.786 29.5001 105.829 29.5016C105.873 29.503 105.916 29.4653 105.938 29.3988C105.944 29.3696 105.947 29.3399 105.946 29.3101C105.953 29.1731 105.906 29.079 105.845 29.0802Z" fill="#E0E0E0"/>
<path d="M105.858 28.2532C105.803 28.2348 105.748 28.3469 105.745 28.4591C105.742 28.5712 105.793 28.6666 105.85 28.6642C105.907 28.6617 105.959 28.5744 105.961 28.4622C105.964 28.35 105.914 28.2547 105.858 28.2532Z" fill="#E0E0E0"/>
<path d="M113.139 33.0832C113.158 33.0284 113.063 32.9616 112.95 32.9457C112.838 32.9297 112.739 32.966 112.732 33.0247C112.726 33.0834 112.809 33.1462 112.921 33.1622C113.033 33.1781 113.132 33.1419 113.139 33.0832Z" fill="#E0E0E0"/>
<path d="M113.96 33.1937C113.978 33.1389 113.882 33.0761 113.77 33.0601C113.657 33.0441 113.558 33.0804 113.548 33.1378C113.537 33.1952 113.625 33.2554 113.738 33.2714C113.85 33.2873 113.945 33.2628 113.96 33.1937Z" fill="#E0E0E0"/>
<path d="M114.775 33.3068C114.793 33.252 114.697 33.1891 114.585 33.1732C114.472 33.1572 114.373 33.1935 114.366 33.2522C114.36 33.3109 114.444 33.3698 114.557 33.3858C114.669 33.4017 114.768 33.3655 114.775 33.3068Z" fill="#E0E0E0"/>
<path d="M115.594 33.4213C115.612 33.3666 115.516 33.3037 115.404 33.2878C115.291 33.2718 115.193 33.3042 115.182 33.3654C115.17 33.4267 115.259 33.4831 115.372 33.499C115.484 33.515 115.583 33.4787 115.594 33.4213Z" fill="#E0E0E0"/>
<path d="M116.409 33.5343C116.427 33.4796 116.332 33.4128 116.22 33.3968C116.108 33.3809 116.009 33.4171 116.002 33.4758C115.995 33.5345 116.079 33.5974 116.191 33.6133C116.303 33.6293 116.402 33.593 116.409 33.5343Z" fill="#E0E0E0"/>
<path d="M117.229 33.6447C117.248 33.59 117.151 33.5271 117.039 33.5111C116.927 33.4952 116.828 33.5315 116.817 33.5888C116.806 33.6462 116.895 33.7065 117.007 33.7224C117.119 33.7384 117.217 33.706 117.229 33.6447Z" fill="#E0E0E0"/>
<path d="M118.04 33.7696C118.059 33.7149 117.962 33.652 117.85 33.6361C117.738 33.6201 117.639 33.6564 117.632 33.7151C117.625 33.7737 117.71 33.8327 117.822 33.8486C117.934 33.8646 118.038 33.8166 118.04 33.7696Z" fill="#E0E0E0"/>
<path d="M118.863 33.8724C118.882 33.8177 118.785 33.7548 118.673 33.7388C118.561 33.7228 118.463 33.7552 118.451 33.8165C118.439 33.8778 118.529 33.9341 118.641 33.9501C118.754 33.966 118.853 33.9298 118.863 33.8724Z" fill="#E0E0E0"/>
<path d="M119.679 33.9854C119.697 33.9306 119.602 33.8638 119.49 33.8479C119.378 33.8319 119.278 33.8682 119.272 33.9269C119.265 33.9856 119.348 34.0484 119.46 34.0644C119.573 34.0803 119.672 34.0441 119.679 33.9854Z" fill="#E0E0E0"/>
<path d="M120.498 34.0999C120.517 34.0412 120.421 33.9784 120.309 33.9624C120.197 33.9464 120.097 33.9827 120.087 34.0401C120.076 34.0975 120.163 34.1616 120.277 34.1737C120.39 34.1857 120.487 34.1573 120.498 34.0999Z" fill="#E0E0E0"/>
<path d="M121.314 34.209C121.332 34.1542 121.236 34.0913 121.124 34.0754C121.012 34.0594 120.912 34.0957 120.906 34.1544C120.899 34.2131 120.984 34.272 121.096 34.288C121.208 34.3039 121.307 34.2677 121.314 34.209Z" fill="#E0E0E0"/>
<path d="M122.133 34.3236C122.151 34.2688 122.055 34.2059 121.943 34.19C121.831 34.174 121.731 34.2103 121.721 34.2677C121.71 34.325 121.799 34.3853 121.911 34.4013C122.023 34.4172 122.122 34.3809 122.133 34.3236Z" fill="#E0E0E0"/>
<path d="M122.948 34.4365C122.967 34.3818 122.872 34.315 122.758 34.3029C122.645 34.2909 122.548 34.3193 122.541 34.378C122.535 34.4367 122.618 34.4996 122.73 34.5155C122.842 34.5315 122.941 34.4952 122.948 34.4365Z" fill="#E0E0E0"/>
<path d="M123.767 34.551C123.787 34.4923 123.691 34.4294 123.578 34.4134C123.466 34.3975 123.367 34.4338 123.356 34.4911C123.346 34.5485 123.433 34.6127 123.547 34.6247C123.66 34.6368 123.757 34.6083 123.767 34.551Z" fill="#E0E0E0"/>
<path d="M127.431 34.9563L125.57 35.558C125.515 35.5767 125.457 35.5842 125.399 35.58C125.34 35.5758 125.284 35.5601 125.232 35.5337C125.18 35.5073 125.134 35.4708 125.096 35.4263C125.058 35.3818 125.03 35.3303 125.013 35.2747C124.994 35.2191 124.986 35.1604 124.991 35.102C124.995 35.0435 125.011 34.9865 125.037 34.9342C125.064 34.882 125.1 34.8355 125.145 34.7975C125.19 34.7596 125.241 34.7309 125.297 34.7131L127.154 34.1101L127.431 34.9563Z" fill="#E0E0E0"/>
<path d="M129.416 41.078L127.473 40.8379C127.356 40.823 127.25 40.7626 127.177 40.6697C127.105 40.5769 127.072 40.4592 127.086 40.3423C127.093 40.2843 127.112 40.2282 127.14 40.1773C127.169 40.1264 127.207 40.0816 127.253 40.0457C127.3 40.0098 127.352 39.9834 127.409 39.968C127.465 39.9527 127.524 39.9486 127.582 39.9562L129.532 40.1767L129.416 41.078Z" fill="#E0E0E0"/>
<path d="M116.773 29.5389C116.828 29.5574 116.918 29.5224 116.98 29.4299C117.041 29.3374 117.048 29.2266 117.01 29.1964C116.973 29.1663 116.869 29.2143 116.804 29.3055C116.738 29.3966 116.728 29.5062 116.773 29.5389Z" fill="#E0E0E0"/>
<path d="M116.306 30.2175C116.36 30.2359 116.449 30.2048 116.512 30.1085C116.575 30.0121 116.579 29.909 116.541 29.8789C116.504 29.8488 116.402 29.8929 116.335 29.988C116.268 30.083 116.26 30.1848 116.306 30.2175Z" fill="#E0E0E0"/>
<path d="M115.842 30.8973C115.893 30.9144 115.982 30.8833 116.044 30.7869C116.107 30.6905 116.112 30.5875 116.074 30.5574C116.036 30.5273 115.934 30.5714 115.867 30.6664C115.801 30.7615 115.804 30.8672 115.842 30.8973Z" fill="#E0E0E0"/>
<path d="M115.243 31.0874C115.223 31.1461 115.279 31.2258 115.379 31.277C115.436 31.3114 115.503 31.3232 115.568 31.3101L115.631 31.292C115.627 31.2735 115.617 31.2566 115.604 31.2437C115.597 31.2374 115.589 31.2327 115.58 31.2297C115.571 31.2268 115.562 31.2257 115.553 31.2266L115.615 31.2085C115.588 31.1499 115.54 31.1031 115.481 31.0763C115.376 31.0278 115.271 31.0275 115.243 31.0874Z" fill="#E0E0E0"/>
<path d="M114.508 30.7098C114.489 30.7645 114.544 30.8482 114.644 30.8993C114.744 30.9505 114.85 30.9468 114.876 30.8947C114.903 30.8426 114.844 30.7576 114.744 30.7065C114.644 30.6553 114.539 30.655 114.508 30.7098Z" fill="#E0E0E0"/>
<path d="M113.775 30.3373C113.757 30.392 113.808 30.4743 113.908 30.5255C114.008 30.5767 114.114 30.573 114.14 30.5209C114.167 30.4688 114.108 30.3838 114.008 30.3327C113.907 30.2815 113.802 30.2851 113.775 30.3373Z" fill="#E0E0E0"/>
<path d="M113.039 29.9635C113.021 30.0182 113.072 30.1006 113.172 30.1517C113.272 30.2029 113.371 30.2188 113.408 30.1484C113.445 30.0781 113.372 30.01 113.272 29.9589C113.171 29.9077 113.075 29.9231 113.039 29.9635Z" fill="#E0E0E0"/>
<path d="M112.315 29.5936C112.296 29.6483 112.347 29.7307 112.447 29.7818C112.548 29.833 112.651 29.8502 112.682 29.7824C112.714 29.7147 112.646 29.644 112.546 29.5929C112.446 29.5417 112.333 29.5388 112.315 29.5936Z" fill="#E0E0E0"/>
<path d="M111.571 29.2171C111.551 29.2758 111.603 29.3542 111.707 29.4067C111.812 29.4591 111.907 29.4737 111.938 29.406C111.97 29.3382 111.902 29.2676 111.802 29.2164C111.702 29.1653 111.589 29.1624 111.571 29.2171Z" fill="#E0E0E0"/>
<path d="M110.826 28.8445C110.807 28.8993 110.858 28.9816 110.962 29.0341C111.066 29.0865 111.168 29.0816 111.194 29.0295C111.221 28.9774 111.158 28.8911 111.058 28.8399C110.958 28.7888 110.845 28.7859 110.826 28.8445Z" fill="#E0E0E0"/>
<path d="M110.078 28.4798C110.059 28.5346 110.11 28.6169 110.214 28.6694C110.318 28.7218 110.42 28.7169 110.446 28.6648C110.473 28.6127 110.414 28.5277 110.31 28.4752C110.206 28.4228 110.1 28.4133 110.078 28.4798Z" fill="#E0E0E0"/>
<path d="M109.338 28.0916C109.319 28.1463 109.37 28.2286 109.474 28.2811C109.578 28.3336 109.674 28.3482 109.706 28.2765C109.739 28.2049 109.674 28.1394 109.57 28.087C109.466 28.0345 109.384 28.046 109.338 28.0916Z" fill="#E0E0E0"/>
<path d="M108.621 27.7243C108.603 27.779 108.657 27.8627 108.758 27.9138C108.858 27.965 108.957 27.9809 108.989 27.9132C109.02 27.8454 108.956 27.7761 108.852 27.7236C108.748 27.6711 108.647 27.6722 108.621 27.7243Z" fill="#E0E0E0"/>
<path d="M107.885 27.3506C107.865 27.4092 107.921 27.489 108.021 27.5401C108.122 27.5913 108.221 27.6072 108.252 27.5394C108.284 27.4717 108.22 27.4023 108.116 27.3499C108.012 27.2974 107.906 27.3141 107.885 27.3506Z" fill="#E0E0E0"/>
<path d="M107.149 26.9767C107.129 27.0354 107.185 27.1151 107.285 27.1663C107.386 27.2174 107.485 27.2334 107.516 27.1656C107.548 27.0978 107.484 27.0285 107.384 26.9774C107.283 26.9262 107.175 26.9246 107.149 26.9767Z" fill="#E0E0E0"/>
<path d="M106.407 26.6839C106.397 26.7152 106.468 26.748 106.54 26.7286L106.478 26.7076L106.558 26.7652C106.664 26.8007 106.764 26.8127 106.791 26.7606C106.817 26.7085 106.758 26.6235 106.658 26.5723L106.564 26.5408L106.505 26.5211C106.427 26.5991 106.394 26.6447 106.407 26.6839Z" fill="#E0E0E0"/>
<path d="M105.611 26.9034C105.626 26.9609 105.728 26.982 105.838 26.9536C105.947 26.9252 106.024 26.8511 106.009 26.7936C105.993 26.7362 105.892 26.715 105.781 26.7473C105.67 26.7796 105.595 26.846 105.611 26.9034Z" fill="#E0E0E0"/>
<path d="M104.808 27.1427C104.823 27.2001 104.925 27.2213 105.035 27.1929C105.144 27.1645 105.221 27.0903 105.206 27.0329C105.19 26.9754 105.089 26.9543 104.978 26.9866C104.867 27.0189 104.799 27.0657 104.808 27.1427Z" fill="#E0E0E0"/>
<path d="M104.018 27.3427C104.037 27.4015 104.139 27.4226 104.249 27.3942C104.358 27.3658 104.432 27.2904 104.416 27.2329C104.401 27.1755 104.299 27.1543 104.188 27.1866C104.077 27.2189 103.996 27.3048 104.018 27.3427Z" fill="#E0E0E0"/>
<path d="M103.225 27.5637C103.241 27.6212 103.343 27.6423 103.452 27.6139C103.562 27.5855 103.639 27.5113 103.624 27.4539C103.608 27.3964 103.506 27.3753 103.395 27.4076C103.284 27.4399 103.21 27.5063 103.225 27.5637Z" fill="#E0E0E0"/>
<path d="M102.429 27.7833C102.444 27.8408 102.546 27.8619 102.656 27.8335C102.765 27.8051 102.843 27.7309 102.827 27.6735C102.812 27.616 102.71 27.5949 102.599 27.6272C102.488 27.6595 102.413 27.7259 102.429 27.7833Z" fill="#E0E0E0"/>
<path d="M101.632 28.003C101.648 28.0604 101.75 28.0816 101.859 28.0531C101.969 28.0247 102.046 27.9506 102.031 27.8931C102.015 27.8357 101.913 27.8145 101.804 27.8429C101.694 27.8713 101.617 27.9455 101.632 28.003Z" fill="#E0E0E0"/>
<path d="M100.84 28.224C100.855 28.2815 100.957 28.3026 101.067 28.2742C101.176 28.2458 101.254 28.1717 101.234 28.1129C101.215 28.0541 101.117 28.0343 101.007 28.0627C100.898 28.0911 100.824 28.1666 100.84 28.224Z" fill="#E0E0E0"/>
<path d="M100.525 27.8787C100.47 27.8603 100.411 27.9579 100.399 28.0714C100.387 28.1849 100.429 28.2816 100.487 28.2882C100.546 28.2949 100.602 28.205 100.614 28.0916C100.626 27.9781 100.59 27.8658 100.525 27.8787Z" fill="#E0E0E0"/>
<path d="M100.608 27.0361C100.554 27.0176 100.493 27.1192 100.483 27.2288C100.472 27.3384 100.511 27.4429 100.571 27.4456C100.631 27.4484 100.686 27.3624 100.696 27.2529C100.707 27.1433 100.663 27.0545 100.608 27.0361Z" fill="#E0E0E0"/>
<path d="M100.666 26.4112C100.638 26.4098 100.61 26.4194 100.588 26.4381C100.566 26.4567 100.553 26.483 100.55 26.5114C100.548 26.5254 100.549 26.5397 100.553 26.5533C100.557 26.5669 100.564 26.5796 100.572 26.5906C100.581 26.6017 100.592 26.6109 100.605 26.6177C100.617 26.6245 100.631 26.6288 100.645 26.6304C100.66 26.6344 100.676 26.6349 100.692 26.6321C100.708 26.6292 100.723 26.6229 100.736 26.6137C100.749 26.6045 100.76 26.5925 100.768 26.5787C100.777 26.5648 100.782 26.5493 100.783 26.5333C100.785 26.5173 100.783 26.5012 100.778 26.486C100.772 26.4708 100.764 26.457 100.753 26.4454C100.742 26.4338 100.728 26.4247 100.713 26.4188C100.698 26.4129 100.682 26.4103 100.666 26.4112Z" fill="#E0E0E0"/>
<path d="M113.868 42.4086C113.862 42.3498 113.767 42.3091 113.645 42.3336C113.524 42.3581 113.444 42.4009 113.451 42.4596C113.457 42.5183 113.552 42.5591 113.67 42.5333C113.787 42.5075 113.871 42.466 113.868 42.4086Z" fill="#E0E0E0"/>
<path d="M114.686 42.3312C114.681 42.2685 114.585 42.2317 114.467 42.2575C114.35 42.2833 114.266 42.3248 114.273 42.3835C114.279 42.4423 114.374 42.483 114.492 42.4572C114.609 42.4314 114.693 42.3899 114.686 42.3312Z" fill="#E0E0E0"/>
<path d="M115.507 42.246C115.501 42.1873 115.406 42.1466 115.288 42.1724C115.171 42.1982 115.087 42.2397 115.094 42.2984C115.1 42.3571 115.199 42.3992 115.316 42.3734C115.434 42.3476 115.514 42.3048 115.507 42.246Z" fill="#E0E0E0"/>
<path d="M116.331 42.1529C116.321 42.0928 116.224 42.056 116.108 42.0779C115.992 42.0998 115.909 42.1504 115.916 42.2092C115.922 42.2679 116.019 42.3047 116.135 42.2828C116.251 42.261 116.341 42.2129 116.331 42.1529Z" fill="#E0E0E0"/>
<path d="M117.148 42.0534C117.142 41.9946 117.045 41.9579 116.929 41.9797C116.813 42.0016 116.73 42.0522 116.737 42.111C116.743 42.1697 116.84 42.2065 116.956 42.1846C117.072 42.1628 117.154 42.1121 117.148 42.0534Z" fill="#E0E0E0"/>
<path d="M117.967 41.946C117.957 41.886 117.861 41.8492 117.745 41.8711C117.628 41.8929 117.55 41.9449 117.556 42.0036C117.563 42.0624 117.663 42.1005 117.775 42.0773C117.888 42.0541 117.97 42.0165 117.967 41.946Z" fill="#E0E0E0"/>
<path d="M118.786 41.8294C118.774 41.7733 118.678 41.7365 118.563 41.7544C118.448 41.7724 118.367 41.8322 118.375 41.887C118.382 41.9418 118.481 41.9839 118.598 41.962C118.714 41.9401 118.792 41.8881 118.786 41.8294Z" fill="#E0E0E0"/>
<path d="M119.606 41.6961C119.594 41.6399 119.496 41.607 119.383 41.6211C119.269 41.6351 119.187 41.6988 119.197 41.7589C119.207 41.8189 119.305 41.8518 119.416 41.8325C119.527 41.8133 119.608 41.7665 119.606 41.6961Z" fill="#E0E0E0"/>
<path d="M120.415 41.5808C120.404 41.5208 120.307 41.4879 120.196 41.5072C120.085 41.5264 119.999 41.5888 120.006 41.6436C120.014 41.6985 120.114 41.7366 120.229 41.7186C120.344 41.7007 120.425 41.6408 120.415 41.5808Z" fill="#E0E0E0"/>
<path d="M121.227 41.4446C121.22 41.3859 121.119 41.3517 121.008 41.3709C120.897 41.3902 120.814 41.4539 120.821 41.5126C120.827 41.5714 120.93 41.6017 121.044 41.5876C121.157 41.5736 121.238 41.5007 121.227 41.4446Z" fill="#E0E0E0"/>
<path d="M122.041 41.3008C122.031 41.2408 121.932 41.2118 121.822 41.2271C121.713 41.2425 121.625 41.3088 121.635 41.3688C121.646 41.4289 121.745 41.4579 121.858 41.4438C121.972 41.4298 122.053 41.3569 122.041 41.3008Z" fill="#E0E0E0"/>
<path d="M122.854 41.1476C122.843 41.0914 122.74 41.0612 122.631 41.0726C122.523 41.0841 122.437 41.1595 122.448 41.2156C122.46 41.2718 122.562 41.306 122.671 41.2906C122.781 41.2752 122.865 41.2076 122.854 41.1476Z" fill="#E0E0E0"/>
<path d="M123.665 40.9894C123.65 40.9319 123.55 40.903 123.442 40.9144C123.334 40.9259 123.251 41.0026 123.263 41.0587C123.275 41.1149 123.372 41.1478 123.482 41.1324C123.592 41.117 123.675 41.0494 123.665 40.9894Z" fill="#E0E0E0"/>
<path d="M124.469 40.8245C124.459 40.7645 124.359 40.7394 124.25 40.7509C124.142 40.7623 124.06 40.8391 124.071 40.8952C124.083 40.9513 124.184 40.9855 124.29 40.9688C124.396 40.9522 124.485 40.882 124.469 40.8245Z" fill="#E0E0E0"/>
<path d="M124.985 40.7151C124.973 40.659 124.94 40.6171 124.907 40.6236C124.874 40.63 124.861 40.6822 124.869 40.737C124.876 40.7918 124.914 40.835 124.947 40.8285C124.979 40.8221 124.997 40.7712 124.985 40.7151Z" fill="#E0E0E0"/>
<path d="M113.017 39.1537L112.979 38.6708L111.014 38.8195L111.209 41.4229L111.812 41.3775L111.74 40.4262L112.945 40.3394L112.908 39.8527L111.706 39.9447L111.651 39.2556L113.017 39.1537Z" fill="#E0E0E0"/>
<path d="M115.401 38.9762L115.363 38.4933L113.4 38.6381L113.595 41.2415L114.198 41.1961L114.125 40.2487L115.33 40.158L115.292 39.6752L114.087 39.7659L114.035 39.0782L115.401 38.9762Z" fill="#E0E0E0"/>
<path d="M116.899 38.3787L115.773 38.4656L115.97 41.0651L116.573 41.0198L116.517 40.3047L117.041 40.263C117.736 40.214 118.143 39.8198 118.099 39.2391C118.055 38.6584 117.595 38.3296 116.899 38.3787ZM116.969 39.7775L116.478 39.8127L116.409 38.9188L116.901 38.8797C117.266 38.8546 117.468 39.0051 117.489 39.2909C117.511 39.5767 117.339 39.7498 116.969 39.7775Z" fill="#E0E0E0"/>
<path d="M119.297 40.3214L119.851 39.711C119.976 39.6079 120.075 39.4769 120.139 39.3287C120.204 39.1805 120.234 39.0191 120.225 38.8575C120.187 38.3877 119.782 38.1165 119.201 38.1606C119.002 38.1668 118.807 38.221 118.634 38.3187C118.46 38.4163 118.312 38.5545 118.203 38.7215L118.663 38.972C118.721 38.8822 118.8 38.8082 118.893 38.7567C118.986 38.7053 119.091 38.6779 119.197 38.6772C119.474 38.6571 119.625 38.7645 119.639 38.9694C119.649 39.0947 119.616 39.2316 119.402 39.4684L118.47 40.4914L118.5 40.8803L120.469 40.733L120.429 40.2449L119.297 40.3214Z" fill="#E0E0E0"/>
<path d="M107.496 25.0519L101.538 26.6915C101.452 26.7168 101.376 26.768 101.321 26.8382C101.265 26.9084 101.233 26.994 101.228 27.0834C101.221 27.152 101.232 27.2211 101.259 27.2846C101.286 27.348 101.328 27.4037 101.382 27.4465C101.436 27.4893 101.5 27.518 101.568 27.5298C101.636 27.5416 101.705 27.5362 101.771 27.5141L106.896 26.034L114.97 30.1252C115.093 30.1861 115.233 30.2001 115.366 30.1644C115.498 30.1287 115.613 30.0458 115.688 29.9314C115.733 29.8658 115.764 29.7914 115.778 29.713C115.793 29.6346 115.79 29.554 115.771 29.4767C115.751 29.3994 115.716 29.327 115.666 29.2645C115.617 29.202 115.555 29.1507 115.484 29.1141L107.496 25.0519Z" fill="#E0E0E0"/>
<path d="M96.5183 32.2726C96.5719 32.2427 96.5643 32.1357 96.5046 32.0416C96.4448 31.9475 96.3602 31.8886 96.3066 31.9184C96.253 31.9483 96.2619 32.0514 96.3203 32.1494C96.3788 32.2474 96.4686 32.3038 96.5183 32.2726Z" fill="#E0E0E0"/>
<path d="M96.9416 32.9808C96.9952 32.951 96.9863 32.8479 96.9279 32.7499C96.8694 32.6519 96.7835 32.5968 96.7299 32.6267C96.6763 32.6566 96.6852 32.7597 96.7436 32.8577C96.8021 32.9557 96.8919 33.012 96.9416 32.9808Z" fill="#E0E0E0"/>
<path d="M97.3652 33.689C97.4148 33.6579 97.4099 33.5561 97.3514 33.4581C97.293 33.3601 97.2031 33.3037 97.1534 33.3349C97.1038 33.3661 97.1087 33.4679 97.1672 33.5659C97.2256 33.6639 97.3155 33.7202 97.3652 33.689Z" fill="#E0E0E0"/>
<path d="M97.7884 34.3974C97.8381 34.3662 97.8332 34.2645 97.7747 34.1665C97.7163 34.0684 97.6264 34.0121 97.5767 34.0433C97.5271 34.0745 97.532 34.1762 97.5905 34.2743C97.6489 34.3723 97.7388 34.4286 97.7884 34.3974Z" fill="#E0E0E0"/>
<path d="M98.2119 35.1057C98.2616 35.0745 98.2566 34.9727 98.1982 34.8747C98.1397 34.7767 98.0499 34.7204 98.0002 34.7515C97.9505 34.7827 97.9555 34.8845 98.0139 34.9825C98.0724 35.0805 98.1622 35.1369 98.2119 35.1057Z" fill="#E0E0E0"/>
<path d="M98.6353 35.8141C98.685 35.7829 98.68 35.6811 98.6216 35.5831C98.5631 35.4851 98.4732 35.4287 98.4236 35.4599C98.3739 35.4911 98.3775 35.5968 98.436 35.6948C98.4944 35.7928 98.5817 35.8439 98.6353 35.8141Z" fill="#E0E0E0"/>
<path d="M99.0574 36.5261C99.107 36.4949 99.1021 36.3931 99.0436 36.2951C98.9852 36.1971 98.8953 36.1408 98.8456 36.1719C98.796 36.2031 98.7996 36.3088 98.8581 36.4068C98.9165 36.5048 99.0051 36.552 99.0574 36.5261Z" fill="#E0E0E0"/>
<path d="M99.4822 37.2306C99.5305 37.2033 99.5269 37.0976 99.4684 36.9996C99.41 36.9016 99.3201 36.8452 99.2704 36.8764C99.2208 36.9076 99.2244 37.0133 99.2829 37.1113C99.3413 37.2093 99.4286 37.2604 99.4822 37.2306Z" fill="#E0E0E0"/>
<path d="M99.9042 37.9427C99.9539 37.9116 99.9503 37.8059 99.8879 37.7065C99.8255 37.6072 99.7422 37.5574 99.6925 37.5886C99.6428 37.6198 99.6478 37.7215 99.7062 37.8196C99.7647 37.9176 99.852 37.9687 99.9042 37.9427Z" fill="#E0E0E0"/>
<path d="M100.304 38.617C100.358 38.5872 100.348 38.488 100.304 38.3992C100.26 38.3103 100.166 38.2657 100.112 38.2956C100.059 38.3254 100.069 38.4246 100.118 38.5109C100.167 38.5971 100.248 38.6678 100.304 38.617Z" fill="#E0E0E0"/>
<path d="M97.2457 30.0579C97.2641 30.0031 97.156 29.9493 97.0438 29.9464C96.9316 29.9435 96.8336 29.9889 96.8348 30.0502C96.8359 30.1116 96.9245 30.1588 97.0367 30.1617C97.1489 30.1646 97.243 30.1179 97.2457 30.0579Z" fill="#E0E0E0"/>
<path d="M98.0689 30.0692C98.0873 30.0145 97.9792 29.9607 97.867 29.9578C97.7548 29.9549 97.6594 30.0055 97.6566 30.0655C97.6539 30.1255 97.7516 30.1714 97.8638 30.1743C97.976 30.1772 98.0714 30.1266 98.0689 30.0692Z" fill="#E0E0E0"/>
<path d="M98.8961 30.0688C98.8937 30.0114 98.8051 29.9642 98.6877 29.9639C98.5703 29.9636 98.484 30.0129 98.4826 30.069C98.4811 30.1251 98.5762 30.1789 98.6897 30.1779C98.8032 30.1769 98.8973 30.1301 98.8961 30.0688Z" fill="#E0E0E0"/>
<path d="M99.7206 30.0631C99.7182 30.0057 99.6257 29.9571 99.5121 29.9581C99.3986 29.9591 99.3085 30.0072 99.3096 30.0685C99.3108 30.1298 99.4007 30.1731 99.5142 30.1721C99.6277 30.1711 99.7217 30.1244 99.7206 30.0631Z" fill="#E0E0E0"/>
<path d="M100.544 30.0614C100.562 30.0066 100.449 29.9555 100.335 29.9565C100.222 29.9575 100.13 30.0094 100.128 30.0694C100.125 30.1294 100.223 30.1753 100.338 30.1704C100.452 30.1655 100.546 30.1058 100.544 30.0614Z" fill="#E0E0E0"/>
<path d="M101.26 30.0281C101.252 29.9944 101.231 29.965 101.202 29.9456C101.173 29.9263 101.138 29.9183 101.104 29.9233C101.024 29.927 100.955 29.9777 100.956 30.039C100.957 30.1004 101.03 30.1423 101.114 30.1399C101.197 30.1375 101.265 30.0907 101.26 30.0281Z" fill="#E0E0E0"/>
<g opacity="0.3">
<path d="M97.9638 26.0335L108.64 23.5651L104.878 28.6419L102.275 46.7363C102.275 46.7363 94.011 40.8533 96.065 32.4814C96.56 30.2938 97.1942 28.1401 97.9638 26.0335Z" fill="#092168"/>
</g>
<path d="M24.5973 39.8076C24.7144 39.9004 44.1039 32.9776 44.1039 32.9776L43.5073 31.1945L24.4736 36.2766L23.4329 37.9029L24.5973 39.8076Z" fill="#092168"/>
<path d="M28.2079 48.3699C28.04 48.4274 27.419 48.4141 27.545 47.6208C27.6709 46.8276 33.6635 37.2555 34.3418 36.3694C35.1281 35.3458 36.124 34.502 37.2629 33.8946C38.6351 33.1279 42.787 31.4331 42.787 31.4331L43.3549 33.1367C43.3549 33.1367 39.2516 34.2879 37.3889 35.532C35.5262 36.776 35.0003 37.7416 33.3674 40.6141C31.7344 43.4866 30.8108 46.927 29.9933 47.7733C29.7727 48.0187 29.4923 48.2027 29.1793 48.3073C28.8664 48.4118 28.5317 48.4334 28.2079 48.3699Z" fill="#092168"/>
<path d="M42.692 30.9337C41.8214 30.9094 38.9356 30.7393 36.0034 31.1281C33.3519 31.4795 28.526 32.982 24.1355 35.7264L22.1844 37.0212C22.1099 37.0643 22.0528 37.132 22.0229 37.2127C21.9931 37.2934 21.9924 37.382 22.0209 37.4631L22.8915 40.0661C22.9123 40.1282 22.9492 40.1837 22.9986 40.2268C23.0479 40.2699 23.1078 40.2991 23.1721 40.3114C23.4554 40.3752 23.7211 40.5008 23.9503 40.6792C24.1795 40.8575 24.3665 41.0843 24.4979 41.3433C25.0879 42.4039 27.3284 46.052 29.3591 46.7082C31.3897 47.3645 35.2941 46.3746 37.0596 45.7824C38.8251 45.1902 42.5704 43.7053 43.4675 41.4427C44.3647 39.18 44.4508 36.4025 44.4508 34.9884C44.4508 33.5742 44.7535 32.9997 45.8009 32.6528L45.138 30.6752C44.3305 30.8237 43.5127 30.9101 42.692 30.9337ZM42.9858 34.4205C43.757 37.9161 43.3372 39.7965 42.7936 40.9455C42.0932 42.4282 41.0944 43.6656 36.9403 45.04C32.6492 46.4608 30.075 46.1028 29.105 45.6189C28.1349 45.135 26.3805 42.4436 25.4083 39.9644C24.436 37.4852 25.4326 36.5881 26.6589 35.6026C27.5428 34.8911 29.7966 33.9808 30.718 33.625C30.9721 33.5256 31.2284 33.4483 31.4847 33.3599C32.8812 32.8892 35.177 32.2418 36.3592 32.0739C37.5413 31.9059 42.2169 30.9226 42.9858 34.4205Z" fill="#092168"/>
<path d="M42.9859 34.4205C42.9859 34.4205 42.9704 34.3763 42.9461 34.2901C42.7839 33.6735 42.4379 33.1209 41.954 32.7058C41.3111 32.2282 40.5436 31.9473 39.7443 31.8971C38.6883 31.8174 37.6263 31.8798 36.5868 32.0827C35.3201 32.2937 34.07 32.5942 32.8459 32.982C32.183 33.1765 31.5024 33.404 30.8064 33.6449C30.1104 33.8857 29.4165 34.1995 28.7095 34.5287C28.3559 34.6901 28.0002 34.8624 27.6511 35.0502C27.2945 35.2314 26.9563 35.4468 26.6413 35.6932C26.3173 35.9436 26.015 36.2207 25.7375 36.5218C25.4552 36.824 25.2538 37.1927 25.152 37.5935C25.0591 38.004 25.0546 38.4296 25.1387 38.8419C25.221 39.2648 25.3469 39.678 25.5143 40.0749C25.847 40.8955 26.233 41.6934 26.67 42.4635C27.0981 43.2408 27.5919 43.98 28.146 44.6732C28.4073 45.0121 28.7214 45.3068 29.0763 45.546C29.456 45.7264 29.8629 45.8428 30.2805 45.8907C31.1018 46.0028 31.9338 46.0125 32.7575 45.9194C33.5491 45.8367 34.334 45.6986 35.1063 45.5062C35.8598 45.3228 36.5868 45.104 37.285 44.8632C37.9613 44.636 38.6251 44.3735 39.2737 44.0766C39.881 43.8045 40.4598 43.4729 41.0016 43.0866C41.5008 42.7296 41.9324 42.2867 42.2766 41.7785C42.5838 41.3132 42.8303 40.8105 43.0102 40.2826C43.1676 39.8096 43.2714 39.3204 43.3195 38.8243C43.397 38.0288 43.3896 37.2273 43.2974 36.4334C43.2289 35.7706 43.1405 35.2756 43.0765 34.9331C43.0455 34.7652 43.0212 34.637 43.0035 34.5464C42.9859 34.4558 42.9815 34.4138 42.9815 34.4138C42.9815 34.4138 42.9947 34.4558 43.0146 34.5442L43.1008 34.9287C43.1693 35.269 43.2665 35.7728 43.3416 36.429C43.4415 37.2266 43.4556 38.0325 43.3836 38.8331C43.3374 39.3333 43.2359 39.8269 43.0809 40.3047C42.9959 40.5661 42.8918 40.8209 42.7693 41.067C42.6455 41.3289 42.503 41.5814 42.3429 41.8227C41.9957 42.3378 41.5595 42.7867 41.0547 43.1485C40.5097 43.5415 39.9263 43.8784 39.3135 44.1539C38.6619 44.4554 37.9944 44.721 37.3138 44.9494C36.6155 45.1924 35.8841 45.4156 35.1262 45.6012C34.3529 45.8011 33.5666 45.9465 32.773 46.0365C31.9398 46.1306 31.0981 46.121 30.2673 46.0078C29.8325 45.9536 29.4099 45.8274 29.0166 45.6343C28.6486 45.3891 28.3231 45.0853 28.0532 44.735C27.4957 44.042 26.9982 43.3028 26.5661 42.5254C26.1247 41.7513 25.7364 40.9481 25.4039 40.1213C25.2333 39.7173 25.1052 39.2967 25.0216 38.8663C24.9345 38.4347 24.9405 37.9894 25.0393 37.5604C25.092 37.3507 25.1715 37.1487 25.2757 36.9593C25.3842 36.7754 25.51 36.6023 25.6513 36.4423C25.9336 36.1385 26.2403 35.8584 26.5683 35.6048C26.89 35.3521 27.2348 35.1302 27.598 34.9419C27.9516 34.7541 28.3073 34.5818 28.6631 34.4205C29.3746 34.0979 30.0765 33.8033 30.7688 33.5366C31.4693 33.2936 32.1499 33.0682 32.815 32.8737C34.0448 32.4915 35.3 32.1962 36.5713 31.9899C37.6182 31.792 38.6869 31.7355 39.7488 31.822C40.5582 31.8785 41.3337 32.1695 41.9805 32.6594C42.3731 32.9884 42.6707 33.4164 42.8422 33.899C42.89 34.0217 42.9277 34.1481 42.9549 34.2769C42.9792 34.3741 42.9859 34.4205 42.9859 34.4205Z" fill="white"/>
<g opacity="0.3">
<path d="M30.5987 33.9587C30.3357 34.0603 25.6469 35.8811 25.6159 37.6863C25.585 39.4916 27.3152 42.8966 28.2962 44.0523C29.2773 45.2079 32.2117 45.2433 33.6723 44.9251C35.1328 44.6069 35.7449 32.7478 35.7449 32.7478C35.7449 32.7478 34.1473 32.6042 30.5987 33.9587Z" fill="white"/>
</g>
<path d="M41.0436 32.1622C40.9359 32.2259 40.8237 32.2813 40.7077 32.328L39.7819 32.75C38.7577 33.2012 37.7589 33.7079 36.79 34.268C36.2626 34.5819 35.7662 34.9452 35.3074 35.3529C34.9394 35.6893 34.6036 36.0591 34.3042 36.4577C34.0523 36.8047 33.8623 37.0963 33.7297 37.2952C33.6646 37.4035 33.5907 37.5062 33.5087 37.6023C33.5576 37.4879 33.616 37.3778 33.6833 37.2731C33.8048 37.0632 33.986 36.7671 34.2313 36.4113C34.5272 36.0025 34.8641 35.6249 35.2367 35.2844C35.6962 34.867 36.1967 34.4969 36.7304 34.1796C37.7027 33.6155 38.711 33.1158 39.7487 32.6837C40.142 32.5114 40.4668 32.3854 40.6922 32.297C40.8051 32.2417 40.9227 32.1966 41.0436 32.1622Z" fill="#AEBCE9"/>
<path d="M42.3053 33.1588C42.0907 33.2776 41.8693 33.3838 41.6424 33.477C41.2226 33.6626 40.6459 33.9189 40.0117 34.215C39.3775 34.5111 38.8097 34.7895 38.3987 34.9906C38.1803 35.109 37.9544 35.2131 37.7225 35.3022C37.9238 35.1557 38.1375 35.0271 38.3611 34.9177C38.7633 34.6967 39.3289 34.4073 39.9631 34.1112C40.5973 33.8151 41.1828 33.5676 41.6115 33.4019C41.8349 33.2999 42.0671 33.2186 42.3053 33.1588Z" fill="#AEBCE9"/>
<path d="M66.3902 25.8295C66.3505 25.9754 46.6958 32.1071 46.6958 32.1071L46.1014 30.3239L64.3706 22.9393L66.1803 23.6022L66.3902 25.8295Z" fill="#092168"/>
<path d="M68.6441 34.8425C68.8142 34.7851 69.3069 34.4006 68.7214 33.8482C68.1358 33.2958 57.5981 29.2455 56.522 28.945C55.2787 28.601 53.9763 28.5257 52.7016 28.7241C51.1438 28.945 46.8129 30.0764 46.8129 30.0764L47.383 31.78C47.383 31.78 51.3603 30.2332 53.5987 30.0962C55.837 29.9592 56.8358 30.4233 59.8718 31.749C62.9079 33.0748 65.7119 35.2535 66.8741 35.4391C67.1956 35.5 67.5272 35.4772 67.8372 35.3727C68.1472 35.2682 68.4251 35.0856 68.6441 34.8425Z" fill="#092168"/>
<path d="M44.4839 30.8851L45.1468 32.8627C46.1964 32.5114 46.7842 32.7876 47.6327 33.9167C48.4812 35.0458 50.2268 37.2113 52.3016 38.4818C54.3765 39.7523 58.2676 38.6873 60.0353 38.0973C61.803 37.5074 65.5196 35.9474 66.7437 34.204C67.9679 32.4606 67.5613 28.1982 67.4066 26.9962C67.3557 26.7103 67.369 26.4167 67.4454 26.1366C67.5218 25.8565 67.6595 25.5969 67.8486 25.3765C67.8922 25.3274 67.9224 25.2677 67.9359 25.2034C67.9495 25.139 67.946 25.0723 67.9259 25.0097L67.0222 22.4068C66.9946 22.3267 66.9407 22.2584 66.8692 22.2131C66.7977 22.1677 66.713 22.148 66.6288 22.1571L64.2911 22.2963C59.1338 22.7382 54.3742 24.4507 52.0453 25.7632C49.4711 27.2127 47.2659 29.0887 46.5831 29.63C45.9166 30.1016 45.2148 30.5212 44.4839 30.8851ZM52.337 26.7332C53.3799 26.1543 55.6028 25.2925 57.0037 24.8285C57.26 24.7446 57.5141 24.6518 57.7749 24.5788C58.725 24.3093 61.0716 23.6817 62.2074 23.7171C63.7784 23.7679 65.1152 23.885 65.8312 26.4504C66.5471 29.0158 66.7614 32.2197 66.2731 33.1898C65.7848 34.1598 63.9486 35.9938 59.6663 37.4411C55.5321 38.842 53.9853 38.4531 52.527 37.6908C51.4023 37.0986 49.9351 35.8501 48.448 32.5932C46.9609 29.3362 51.2808 27.3144 52.3325 26.7332H52.337Z" fill="#092168"/>
<path d="M52.3326 26.7332C52.3326 26.7332 52.295 26.7597 52.2177 26.8039L51.8708 26.9939C51.5681 27.1641 51.1195 27.4116 50.5759 27.7828C49.9069 28.2194 49.3166 28.7663 48.8303 29.4002C48.6883 29.5941 48.5655 29.8013 48.4635 30.0189C48.2876 30.3846 48.1911 30.7833 48.1805 31.1889C48.1698 31.5945 48.2452 31.9978 48.4017 32.3722C48.6445 32.937 48.9182 33.488 49.2214 34.0228C49.5469 34.606 49.9163 35.1637 50.3262 35.691C50.7581 36.258 51.2659 36.7629 51.8354 37.1914C52.1362 37.4103 52.4565 37.6011 52.7922 37.7615C53.1332 37.9312 53.4908 38.0652 53.8594 38.1614C54.6322 38.3426 55.4327 38.3733 56.2171 38.252C57.0329 38.1372 57.8383 37.9577 58.6256 37.7151C60.3071 37.2383 61.9246 36.5594 63.4426 35.6933C63.8239 35.465 64.1927 35.2164 64.5474 34.9486C64.9 34.6884 65.2296 34.3987 65.5329 34.0824C65.8397 33.7839 66.0885 33.431 66.2665 33.0417C66.3914 32.638 66.4562 32.2181 66.4587 31.7955C66.4806 30.9661 66.4362 30.1364 66.3262 29.3141C66.228 28.5242 66.0841 27.7407 65.8953 26.9674C65.7097 26.2162 65.4865 25.4781 65.0556 24.886C64.8507 24.593 64.5827 24.3499 64.2712 24.1745C63.9643 24.01 63.6306 23.9015 63.2857 23.8541C62.6273 23.752 61.9577 23.7438 61.297 23.8298C60.6607 23.9159 60.0574 24.0507 59.4829 24.1767C58.9084 24.3026 58.3671 24.4529 57.8567 24.5943C57.3462 24.7357 56.8756 24.9058 56.4337 25.0583C55.5498 25.3654 54.7963 25.6571 54.1865 25.9046C53.5766 26.1521 53.1082 26.3598 52.7944 26.5078L52.4409 26.6824L52.3193 26.7398L52.4386 26.6669C52.516 26.6227 52.6331 26.5609 52.7878 26.4835C53.0993 26.3266 53.5656 26.1145 54.1732 25.8582C54.7809 25.6019 55.5321 25.308 56.416 24.992C56.8579 24.8373 57.333 24.6783 57.8412 24.5192C58.3494 24.3601 58.8952 24.2297 59.4697 24.0927C60.0442 23.9557 60.6496 23.8253 61.2882 23.7392C61.9566 23.6494 62.6343 23.6546 63.3012 23.7546C63.6567 23.804 64.0007 23.9154 64.3176 24.0839C64.6426 24.2656 64.9227 24.5177 65.1374 24.8219C65.5793 25.4317 65.8003 26.183 65.9991 26.9365C66.1906 27.7142 66.3382 28.5021 66.4411 29.2964C66.5545 30.1236 66.6011 30.9586 66.5803 31.7933C66.5785 32.228 66.5115 32.66 66.3814 33.0748C66.1995 33.4792 65.9431 33.8458 65.6257 34.1553C65.3169 34.477 64.9822 34.7726 64.6247 35.0392C64.2662 35.3093 63.8929 35.5594 63.5067 35.7883C61.982 36.661 60.3561 37.3437 58.6654 37.8211C57.8666 38.0673 57.0494 38.2491 56.2215 38.3647C55.4237 38.4876 54.6097 38.4553 53.8241 38.2697C53.4486 38.1702 53.0843 38.0325 52.7369 37.8587C52.3994 37.6931 52.0777 37.4971 51.7758 37.2731C51.1999 36.8383 50.6868 36.326 50.2511 35.7507C49.8407 35.2183 49.4714 34.6554 49.1463 34.067C48.8428 33.5274 48.5698 32.9711 48.3287 32.4009C48.1114 31.8723 48.0523 31.292 48.1586 30.7304C48.2078 30.4741 48.2903 30.2252 48.4039 29.9902C48.5085 29.7689 48.6351 29.5587 48.7817 29.3627C49.0427 29.0114 49.3429 28.6912 49.6766 28.4081C49.9573 28.1692 50.2525 27.9478 50.5605 27.7452C50.9831 27.466 51.4197 27.2086 51.8686 26.9741L52.2199 26.7929C52.2906 26.7509 52.3326 26.7332 52.3326 26.7332Z" fill="white"/>
<path d="M48.6425 29.6212C48.7573 29.5726 48.8764 29.5349 48.9983 29.5085C49.2192 29.4467 49.5661 29.3516 49.986 29.2522C51.0757 28.9714 52.183 28.764 53.3004 28.6313C53.9184 28.5628 54.5417 28.5569 55.1609 28.6136C55.6655 28.6674 56.1631 28.7732 56.6458 28.9296C57.0546 29.0644 57.3794 29.1948 57.6026 29.2876C57.72 29.3299 57.8332 29.3831 57.9406 29.4467C57.8194 29.4161 57.7006 29.3769 57.5849 29.3296C57.3639 29.2478 57.0325 29.1329 56.6215 29.0069C56.1414 28.8639 55.6485 28.7677 55.1499 28.7197C54.5384 28.6694 53.9235 28.6783 53.3137 28.7462C52.1989 28.8802 51.0924 29.0757 49.9992 29.3318L49.0049 29.5527C48.8858 29.5839 48.7648 29.6068 48.6425 29.6212Z" fill="#AEBCE9"/>
<path d="M48.2404 31.1745C48.4697 31.0819 48.7062 31.008 48.9474 30.9536C49.3894 30.8298 50.0058 30.6751 50.6908 30.5293C51.3758 30.3835 52.0034 30.2774 52.4585 30.2111C52.7025 30.1637 52.9502 30.1379 53.1988 30.1338C52.961 30.2023 52.7188 30.2547 52.474 30.2907C52.0321 30.3768 51.4023 30.4962 50.7063 30.642C50.0103 30.7878 49.407 30.9293 48.9585 31.0331C48.7226 31.0963 48.4826 31.1436 48.2404 31.1745Z" fill="#AEBCE9"/>
<g opacity="0.3">
<path d="M53.5236 26.7222C52.5933 26.994 49.913 28.3462 49.1043 29.6367C48.6491 30.3614 48.4193 31.601 49.0225 32.4252C49.6258 33.2494 50.9913 35.6049 52.7413 36.7185C54.4914 37.8322 56.6656 37.6952 57.5871 37.3218C58.5085 36.9483 56.8358 25.8074 56.1309 25.8472C55.426 25.8869 53.5236 26.7222 53.5236 26.7222Z" fill="white"/>
</g>
<path d="M36.0614 25.0912C35.2684 24.8269 42.4053 17.9543 43.4626 18.7473C44.5199 19.5402 43.1983 20.3332 42.141 20.8619C41.0836 21.3906 36.8543 25.3555 36.0614 25.0912Z" fill="#FB9D97"/>
<path d="M42.9976 25.9449C42.7333 26.7379 35.8607 19.6009 36.6537 18.5436C37.4467 17.4863 38.2397 18.8079 38.7683 19.8653C39.297 20.9226 43.262 25.1519 42.9976 25.9449Z" fill="#FB9D97"/>
<path d="M119.061 25.0912C118.268 24.8269 125.405 17.9543 126.463 18.7473C127.52 19.5402 126.198 20.3332 125.141 20.8619C124.084 21.3906 119.854 25.3555 119.061 25.0912Z" fill="#FB9D97"/>
<path d="M125.998 25.9449C125.733 26.7379 118.861 19.6009 119.654 18.5436C120.447 17.4863 121.24 18.8079 121.768 19.8653C122.297 20.9226 126.262 25.1519 125.998 25.9449Z" fill="#FB9D97"/>
<path d="M68.5288 59.7123C68.5288 59.7123 68.4084 53.116 69.9538 49.9531C70.9299 47.9528 76.0664 42.9939 82.1217 43.3023L82.6623 43.277C83.5846 44.479 85.7924 47.5895 86.1274 49.4485C86.6554 52.3589 86.9451 61.225 86.9451 61.225C86.9451 61.225 83.1669 60.6518 80.9546 60.169C73.4736 58.5427 68.5288 59.7123 68.5288 59.7123Z" fill="#2948A4"/>
<path d="M85.8252 48.4987C85.6344 48.0655 82.5955 43.291 82.5955 43.291C82.5955 43.291 86.6363 43.4816 90.1128 45.8865C91.7693 47.0317 93.7247 48.5177 94.3555 50.5148C95.2903 53.4705 95.4125 60.0604 95.4114 60.0697C95.4152 60.2903 93.3145 60.7457 93.1495 60.7833C92.2065 61.0021 88.8999 61.5646 86.8528 61.1898C86.8557 61.1892 86.5538 50.166 85.8252 48.4987Z" fill="#092168"/>
<path d="M73.5239 59.6514C73.4971 59.5235 73.5924 50.7284 75.154 48.5115C76.6075 46.4446 80.6355 43.3316 80.6355 43.3316L82.6327 43.3378C82.6327 43.3378 85.4073 46.924 86.0056 49.0554C86.8302 51.9916 86.9991 61.2652 86.9991 61.2652" stroke="#7E9BF1" stroke-width="0.5" stroke-miterlimit="10"/>
<path d="M80.1245 43.1081C80.1246 42.732 80.8049 42.3164 81.6725 42.3166C82.54 42.3168 83.2676 42.7346 83.2675 43.1108C83.2675 43.4869 82.5149 43.4565 81.6468 43.4534C80.7786 43.4503 80.1245 43.4843 80.1245 43.1081Z" fill="#0F60B2"/>
<path d="M62.2068 68.7264C62.2427 69.0282 62.4422 69.8933 63.4055 69.1637C64.3689 68.434 66.2352 66.2958 66.2352 66.2958C66.2352 66.2958 63.9105 65.9427 62.9163 66.8578C61.922 67.7729 62.1708 68.4245 62.2068 68.7264Z" fill="#2948A4"/>
<path d="M62.4495 66.5552L68.5318 59.7117C68.5318 59.7117 69.9714 59.1127 73.5304 58.9584C77.853 58.7715 89.0322 61.2548 89.0322 61.2548L84.8534 66.5286C84.8534 66.5286 82.1876 69.6715 78.6576 68.8643C73.3813 67.6556 67.5727 65.8608 65.9934 65.8369C62.9158 65.7841 62.4495 66.5552 62.4495 66.5552Z" fill="#5D7ACF"/>
<path d="M79.8707 69.5292C77.4775 69.4423 68.8412 66.7325 66.1601 66.4875C65.3594 66.4156 64.0203 66.4233 63.3073 67.0155C62.6872 67.5307 62.2438 68.3819 62.6074 69.1763C62.6633 69.298 62.7535 69.4247 62.8858 69.4334C62.627 69.6029 62.2581 69.4921 62.0574 69.2582C61.8567 69.0242 61.7978 68.6998 61.7967 68.3907C61.795 67.7601 62.013 67.0198 62.4495 66.5553C63.0272 65.9398 64.1516 65.3705 66.2926 65.571C70.0484 65.9214 77.9461 68.61 79.8407 68.6043C82.626 68.5939 84.4406 66.5272 85.0152 66.0125C85.5892 65.4948 85.6031 65.8074 85.2199 66.2365C84.8395 66.665 82.8936 69.6389 79.8707 69.5292Z" fill="#092168"/>
<path d="M54.0781 59.9894C53.0681 59.6527 62.1582 50.8993 63.5049 51.9093C64.8516 52.9193 63.1682 53.9293 61.8216 54.6027C60.4749 55.276 55.0882 60.3261 54.0781 59.9894Z" fill="#FB9D97"/>
<path d="M62.9126 61.0768C62.5759 62.0868 53.8225 52.9967 54.8325 51.65C55.8425 50.3033 56.8525 51.9867 57.5258 53.3334C58.1992 54.68 63.2492 60.0668 62.9126 61.0768Z" fill="#FB9D97"/>
</svg>
