<svg width="56" height="56" viewBox="0 0 56 56" fill="none" xmlns="http://www.w3.org/2000/svg">
<g style="mix-blend-mode:multiply">
<rect width="56" height="56" rx="4" fill="#C1C7D0"/>
<path d="M8 38V48H18" stroke="#6B778C" stroke-width="3" stroke-linecap="round" stroke-linejoin="round"/>
<path d="M38 48H48V38" stroke="#6B778C" stroke-width="3" stroke-linecap="round" stroke-linejoin="round"/>
<path d="M33.5 40C33.5 43.7843 30.8557 46.5 28 46.5C25.1443 46.5 22.5 43.7843 22.5 40C22.5 36.2157 25.1443 33.5 28 33.5C30.8557 33.5 33.5 36.2157 33.5 40Z" stroke="#6B778C" stroke-width="3"/>
<path d="M38 8H48V18" stroke="#6B778C" stroke-width="3" stroke-linecap="round" stroke-linejoin="round"/>
<path d="M18 8H8V18" stroke="#6B778C" stroke-width="3" stroke-linecap="round" stroke-linejoin="round"/>
<path d="M27 18V23.5385C27 24.7692 25.8 26 24.6 26H24" stroke="#6B778C" stroke-width="3" stroke-linecap="round" stroke-linejoin="round"/>
<path d="M38 18V20" stroke="#6B778C" stroke-width="3" stroke-linecap="round" stroke-linejoin="round"/>
<path d="M18 18V20" stroke="#6B778C" stroke-width="3" stroke-linecap="round" stroke-linejoin="round"/>
</g>
</svg>
