<svg width="16" height="17" viewBox="0 0 16 17" fill="none" xmlns="http://www.w3.org/2000/svg">
<g clip-path="url(#clip0_128_656)">
<path d="M11.3392 5.66064H10.5017C10.3196 5.66064 10.1464 5.74814 10.0392 5.89814L7.23209 9.791L5.96066 8.02672C5.85352 7.8785 5.68209 7.78922 5.49816 7.78922H4.66066C4.54459 7.78922 4.47673 7.92136 4.54459 8.016L6.76959 11.1017C6.82215 11.1751 6.89144 11.2349 6.97172 11.2761C7.052 11.3173 7.14095 11.3388 7.2312 11.3388C7.32145 11.3388 7.4104 11.3173 7.49067 11.2761C7.57095 11.2349 7.64024 11.1751 7.6928 11.1017L11.4535 5.88743C11.5232 5.79279 11.4553 5.66064 11.3392 5.66064Z" fill="white"/>
<path d="M8 0.5C3.58214 0.5 0 4.08214 0 8.5C0 12.9179 3.58214 16.5 8 16.5C12.4179 16.5 16 12.9179 16 8.5C16 4.08214 12.4179 0.5 8 0.5ZM8 15.1429C4.33214 15.1429 1.35714 12.1679 1.35714 8.5C1.35714 4.83214 4.33214 1.85714 8 1.85714C11.6679 1.85714 14.6429 4.83214 14.6429 8.5C14.6429 12.1679 11.6679 15.1429 8 15.1429Z" fill="white"/>
</g>
<defs>
<clipPath id="clip0_128_656">
<rect width="16" height="16" fill="white" transform="translate(0 0.5)"/>
</clipPath>
</defs>
</svg>
