<svg width="24" height="22" viewBox="0 0 24 22" fill="none" xmlns="http://www.w3.org/2000/svg">
<path d="M15.36 1.93544L23.4013 15.3287C24.5569 17.2523 23.9893 19.7831 22.1329 20.9807C21.5098 21.3841 20.7835 21.5991 20.0413 21.5999H3.95761C1.77241 21.5999 0 19.7639 0 17.4971C0 16.7303 0.207601 15.9803 0.597602 15.3287L8.64002 1.93544C9.79443 0.0118301 12.2352 -0.577372 14.0916 0.620232C14.6052 0.951433 15.0396 1.40143 15.36 1.93544ZM12 16.7999C12.3183 16.7999 12.6235 16.6734 12.8486 16.4484C13.0736 16.2234 13.2 15.9181 13.2 15.5999C13.2 15.2816 13.0736 14.9764 12.8486 14.7513C12.6235 14.5263 12.3183 14.3999 12 14.3999C11.6818 14.3999 11.3765 14.5263 11.1515 14.7513C10.9265 14.9764 10.8 15.2816 10.8 15.5999C10.8 15.9181 10.9265 16.2234 11.1515 16.4484C11.3765 16.6734 11.6818 16.7999 12 16.7999ZM12 5.99985C11.6818 5.99985 11.3765 6.12628 11.1515 6.35132C10.9265 6.57636 10.8 6.88159 10.8 7.19985V11.9999C10.8 12.3181 10.9265 12.6233 11.1515 12.8484C11.3765 13.0734 11.6818 13.1999 12 13.1999C12.3183 13.1999 12.6235 13.0734 12.8486 12.8484C13.0736 12.6233 13.2 12.3181 13.2 11.9999V7.19985C13.2 6.88159 13.0736 6.57636 12.8486 6.35132C12.6235 6.12628 12.3183 5.99985 12 5.99985Z" fill="#FF5630"/>
</svg>
