<svg width="20" height="20" viewBox="0 0 20 20" fill="none" xmlns="http://www.w3.org/2000/svg">
<g clip-path="url(#clip0_2_3722)">
<path d="M19.0357 4.83741V4.21387H16.3545V4.83741H17.3833V15.3303H16.3545V15.9538H19.0357V15.3303H18.0069V4.83741H19.0357Z" fill="#727272"/>
<path d="M0.115687 13.416L3.25373 6.32949C3.47252 5.84083 3.87107 5.54492 4.41139 5.54492H4.52713C5.06712 5.54492 5.45308 5.84077 5.67163 6.32949L8.80979 13.416C8.8741 13.5574 8.91278 13.686 8.91278 13.8147C8.91278 14.342 8.50118 14.7664 7.97385 14.7664C7.51087 14.7664 7.20215 14.4963 7.02216 14.0847L6.41775 12.6701H2.45652L1.82631 14.1491C1.65908 14.5349 1.32478 14.7664 0.913184 14.7664C0.398552 14.7664 0 14.3548 0 13.8404C0 13.6989 0.0513792 13.5574 0.115687 13.416ZM5.68462 10.9209L4.43702 7.95L3.18954 10.9209H5.68462Z" fill="#727272"/>
<path d="M9.85059 12.7084V12.6826C9.85059 11.1779 10.9953 10.4834 12.6286 10.4834C13.3232 10.4834 13.8248 10.5991 14.3135 10.7664V10.6506C14.3135 9.84031 13.8119 9.39027 12.8344 9.39027C12.2943 9.39027 11.857 9.46739 11.484 9.58319C11.3683 9.62176 11.2911 9.63457 11.2009 9.63457C10.751 9.63457 10.3909 9.28734 10.3909 8.83724C10.3909 8.48996 10.6094 8.19416 10.918 8.07836C11.5354 7.84688 12.2042 7.71826 13.1174 7.71826C14.1847 7.71826 14.9565 8.00118 15.4453 8.4899C15.9597 9.00431 16.1912 9.76319 16.1912 10.6892V13.8272C16.1912 14.3546 15.7667 14.7661 15.2394 14.7661C14.6735 14.7661 14.3006 14.3674 14.3006 13.9559V13.943C13.8247 14.4703 13.1687 14.8175 12.2171 14.8175C10.918 14.8176 9.85059 14.0718 9.85059 12.7084ZM14.3391 12.2582V11.911C14.0047 11.7567 13.5675 11.6538 13.0916 11.6538C12.2556 11.6538 11.7412 11.9882 11.7412 12.6054V12.6312C11.7412 13.1585 12.1785 13.4671 12.8086 13.4671C13.7218 13.4672 14.3391 12.9657 14.3391 12.2582Z" fill="#727272"/>
</g>
<defs>
<clipPath id="clip0_2_3722">
<rect width="19.0355" height="19.0355" fill="white" transform="translate(0 0.565918)"/>
</clipPath>
</defs>
</svg>
