<svg width="19" height="20" viewBox="0 0 19 20" fill="none" xmlns="http://www.w3.org/2000/svg">
<path d="M17.8456 0.565918C9.7832 0.565918 3.1517 6.76834 2.44898 14.6506C3.78861 12.7613 5.42964 10.9434 7.47834 8.85351C7.63062 8.69647 7.88284 8.69331 8.03911 8.84797C8.19537 9.00104 8.19775 9.25248 8.04465 9.40874C7.7361 9.72283 7.42283 10.0488 7.10793 10.3788C6.92787 10.5667 6.75179 10.7539 6.57891 10.9379C6.5472 10.972 6.51545 11.0062 6.48373 11.041C3.95201 13.752 2.14203 16.1116 0.827762 19.0423C0.738124 19.2422 0.827762 19.4769 1.02685 19.5665C1.07998 19.5903 1.13471 19.6015 1.18944 19.6015C1.34094 19.6015 1.48609 19.5142 1.55189 19.3675C2.01986 18.3245 2.56316 17.3569 3.17389 16.4154C8.71323 16.2734 13.7553 13.192 16.398 8.28881C16.4639 8.16585 16.4607 8.01755 16.3893 7.89698C16.3171 7.77801 16.1878 7.70424 16.0483 7.70424H14.5794L17.2134 6.19884C17.2967 6.15125 17.3609 6.07433 17.3919 5.98391C17.9566 4.34209 18.2421 2.65269 18.2421 0.962504C18.2421 0.743595 18.0645 0.565918 17.8456 0.565918Z" fill="#727272"/>
</svg>
