<svg width="20" height="10" viewBox="0 0 20 10" fill="none" xmlns="http://www.w3.org/2000/svg">
<path d="M15 10H12V8H15C15.7956 8 16.5587 7.68393 17.1213 7.12132C17.6839 6.55871 18 5.79565 18 5C18 4.20435 17.6839 3.44129 17.1213 2.87868C16.5587 2.31607 15.7956 2 15 2H12V0H15C16.3261 0 17.5979 0.526784 18.5355 1.46447C19.4732 2.40215 20 3.67392 20 5C20 6.32608 19.4732 7.59785 18.5355 8.53553C17.5979 9.47322 16.3261 10 15 10ZM8 10H5C3.67392 10 2.40215 9.47322 1.46447 8.53553C0.526784 7.59785 0 6.32608 0 5C0 3.67392 0.526784 2.40215 1.46447 1.46447C2.40215 0.526784 3.67392 0 5 0H8V2H5C4.20435 2 3.44129 2.31607 2.87868 2.87868C2.31607 3.44129 2 4.20435 2 5C2 5.79565 2.31607 6.55871 2.87868 7.12132C3.44129 7.68393 4.20435 8 5 8H8V10ZM15 6H5V4H15V6Z" fill="#C1C7D0"/>
</svg>
