<svg width="196" height="194" viewBox="0 0 196 194" fill="none" xmlns="http://www.w3.org/2000/svg">
<path d="M63.0677 120.154C35.1237 88.9136 -11.0023 120.351 2.38272 148.481C15.7678 176.61 46.8034 185.865 89.75 192.707C126.158 198.507 180.304 184.973 194.108 148.481C207.913 111.989 142.816 60.5771 107.448 77.2266C72.7709 93.551 87.3241 147.271 63.0677 120.154Z" fill="#E3FCEF"/>
<path d="M50.6626 46C45.7149 46 46.9959 56.5 46.6626 62.5C46.1626 62.8333 45.4626 63.5 46.6626 63.5C48.1626 63.5 49.1626 54 49.1626 51.5C49.1626 49 52.6626 49 56.1626 48.5C59.6626 48 66.1626 48.5 64.6626 46H50.6626Z" fill="#B3D4FF"/>
<path d="M147.5 49.6626C147.5 44.7149 137 45.9959 131 45.6626C130.667 45.1626 130 44.4626 130 45.6626C130 47.1626 139.5 48.1626 142 48.1626C144.5 48.1626 144.5 51.6626 145 55.1626C145.5 58.6626 145 65.1626 147.5 63.6626L147.5 49.6626Z" fill="#B3D4FF"/>
<path fill-rule="evenodd" clip-rule="evenodd" d="M49.9424 28.0104C42.8714 29.1844 38.3024 32.1144 35.5664 37.2304C33.3474 41.3794 33.3474 41.3874 33.0694 107.129C32.8674 155.161 33.0944 172.879 33.9124 172.879C34.7314 172.879 34.9404 155.588 34.6894 108.61L34.3474 44.3414L36.9014 39.3604C38.7424 35.7704 40.6964 33.6814 43.9014 31.8794L48.3474 29.3794H97.3474C143.809 29.3794 146.51 29.4784 149.503 31.2894C156.794 35.7024 158.121 42.2074 159.466 80.1294C159.793 89.3414 160.462 96.8794 160.953 96.8794C162.044 96.8794 162.041 95.9744 160.857 67.8794C160.232 53.0554 159.383 43.6204 158.367 40.2234C156.575 34.2314 151.905 29.5444 146.124 27.9394C141.463 26.6454 57.7973 26.7064 49.9424 28.0104ZM91.5144 67.5464C91.1474 67.9124 90.8474 69.0924 90.8474 70.1684C90.8474 71.7604 90.5784 71.9014 89.4024 70.9254C88.6074 70.2654 86.9204 69.8734 85.6524 70.0524C83.9274 70.2974 83.3534 71.0194 83.3703 72.9234C83.3913 75.1704 83.0534 75.4164 80.4664 75.0364L77.5394 74.6074L78.1644 79.9934C78.5084 82.9554 79.2434 88.3044 79.7984 91.8794C80.3534 95.4544 80.8184 102.204 80.8324 106.879C80.8624 116.796 81.9044 121.21 85.4444 126.427C87.5694 129.559 87.9554 131.133 87.6804 135.547C87.4974 138.481 87.6854 140.881 88.0974 140.88C88.5093 140.88 88.8474 138.854 88.8474 136.379C88.8474 131.532 89.2944 131.146 92.2884 133.411C94.7604 135.281 99.9304 135.289 104.379 133.43C107.833 131.987 107.847 131.992 107.917 134.68C107.956 136.164 108.374 138.279 108.847 139.379C109.462 140.81 109.726 139.7 109.777 135.479C109.827 131.217 110.59 128.06 112.522 124.112C114.609 119.846 115.267 116.858 115.516 110.512C115.692 106.039 116.131 95.8094 116.491 87.7784C117.135 73.4154 117.108 73.1404 114.821 70.8534C112.732 68.7644 112.435 68.7034 111.892 70.2524C111.357 71.7754 111.008 71.6804 108.893 69.4284C105.945 66.2904 102.847 66.0464 102.847 68.9524V71.0244L100.212 68.9524C97.6674 66.9494 92.8834 66.1764 91.5144 67.5464ZM110.865 92.1294C111.467 94.4674 112.439 97.9014 113.024 99.7604C114.755 105.258 113.576 117.701 110.796 123.267C107.412 130.042 103.738 132.879 98.3474 132.879C92.8054 132.879 88.9093 129.75 85.3223 122.418C82.9813 117.633 82.7383 116.141 83.0924 108.714C83.3103 104.13 84.1184 98.0494 84.8874 95.2004L86.2864 90.0224L94.8174 89.3924C99.5084 89.0464 104.022 88.6164 104.847 88.4374C109.115 87.5104 109.78 87.9184 110.865 92.1294ZM103.847 96.6604C103.847 97.0894 105.197 97.9504 106.847 98.5734C109.227 99.4714 109.847 99.4354 109.847 98.3994C109.847 97.0454 107.727 95.8794 105.265 95.8794C104.485 95.8794 103.847 96.2304 103.847 96.6604ZM87.8274 98.4034C87.1314 99.2414 86.7714 100.137 87.0274 100.393C87.6604 101.026 92.8293 98.5684 92.8393 97.6294C92.8533 96.2714 89.1184 96.8484 87.8274 98.4034ZM116.847 102.809C116.847 103.398 117.41 103.767 118.097 103.629C120.191 103.21 120.152 109.685 118.034 113.965C116.962 116.134 116.49 118.158 116.986 118.465C118.403 119.34 121.165 111.852 121.261 106.879C121.336 102.942 121.065 102.339 119.097 102.059C117.86 101.884 116.847 102.221 116.847 102.809ZM75.2064 104.387C74.0924 107.288 77.0704 117.879 78.9994 117.879C79.4574 117.879 79.1264 116.117 78.2644 113.964C76.4994 109.552 76.6884 104.247 78.5974 104.629C79.2854 104.767 79.8474 104.429 79.8474 103.879C79.8474 102.285 75.8444 102.723 75.2064 104.387ZM90.3904 104.81C90.0733 105.322 90.2724 106.023 90.8314 106.369C91.3904 106.714 91.8474 106.295 91.8474 105.438C91.8474 103.681 91.2473 103.423 90.3904 104.81ZM104.847 105.379C104.847 106.204 105.297 106.879 105.847 106.879C106.397 106.879 106.847 106.204 106.847 105.379C106.847 104.554 106.397 103.879 105.847 103.879C105.297 103.879 104.847 104.554 104.847 105.379ZM160.994 131.978C160.839 158.966 161.539 172.879 163.05 172.879C163.967 172.879 163.293 141.723 161.871 118.379C161.241 108.036 161.12 109.914 160.994 131.978ZM101.459 112.448C101.004 113.632 99.9743 113.978 97.8354 113.664C96.1923 113.423 94.8474 113.597 94.8474 114.052C94.8474 115.612 101.881 114.954 102.502 113.336C102.828 112.487 102.869 111.568 102.594 111.293C102.319 111.018 101.808 111.537 101.459 112.448ZM102.406 117.446C101.338 118.234 98.7514 118.879 96.6563 118.879C91.9373 118.879 91.7654 120.395 96.2413 122.53C100.709 124.66 104.418 123.723 105.292 120.243C106.145 116.842 104.883 115.618 102.406 117.446ZM102.649 121.506C101.562 122.593 100.334 122.849 98.7094 122.328C96.4473 121.604 96.4963 121.52 99.8474 120.358C103.947 118.937 104.848 119.306 102.649 121.506ZM111.884 143.283C109.638 149.19 102.166 152.634 95.5554 150.809C93.5044 150.243 89.9193 147.947 87.5873 145.707L83.3474 141.634L78.3474 143.349C62.5824 148.759 52.6574 153.332 49.9234 156.445C46.1734 160.717 40.4954 175.879 42.6454 175.879C43.1054 175.879 44.2864 173.291 45.2704 170.129C49.3474 157.021 51.5084 155.227 72.6634 147.397L82.9794 143.578L85.7624 146.625C90.2504 151.538 94.3294 153.157 101.008 152.674C105.744 152.331 107.414 151.71 109.837 149.389C111.48 147.815 113.084 145.706 113.403 144.703C113.721 143.7 114.773 142.879 115.739 142.879C118.32 142.879 130.581 147.2 136.347 150.142C143.043 153.558 146.172 157.067 151.397 167.017C156.91 177.514 157.272 174.957 151.817 164.058C146.284 153.004 141.697 149.484 125.037 143.503C115.78 140.18 113.08 140.135 111.884 143.283Z" fill="#0052CC"/>
<path d="M147.529 141C152.477 141 151.196 130.5 151.529 124.5C152.029 124.167 152.729 123.5 151.529 123.5C150.029 123.5 149.029 133 149.029 135.5C149.029 138 145.529 138 142.029 138.5C138.529 139 132.029 138.5 133.529 141L147.529 141Z" fill="#B3D4FF"/>
<path d="M50.6626 141C45.7149 141 46.9959 130.5 46.6626 124.5C46.1626 124.167 45.4626 123.5 46.6626 123.5C48.1626 123.5 49.1626 133 49.1626 135.5C49.1626 138 52.6626 138 56.1626 138.5C59.6626 139 66.1626 138.5 64.6626 141L50.6626 141Z" fill="#B3D4FF"/>
<circle cx="98.5" cy="26.5" r="26.5" fill="url(#paint0_linear_2_4961)"/>
<path d="M87.3849 25.9763L95.283 34.1077L108.938 19.6147" stroke="#ABF5D1" stroke-width="3" stroke-linecap="round" stroke-linejoin="round"/>
<defs>
<linearGradient id="paint0_linear_2_4961" x1="77.5" y1="12" x2="114.5" y2="47.5" gradientUnits="userSpaceOnUse">
<stop stop-color="#57D9A3"/>
<stop offset="1" stop-color="#00875A"/>
</linearGradient>
</defs>
</svg>
