<svg width="47" height="48" viewBox="0 0 47 48" fill="none" xmlns="http://www.w3.org/2000/svg">
<path fill-rule="evenodd" clip-rule="evenodd" d="M15.8476 1.33333C15.1213 2.06667 14.527 3.26667 14.527 4C14.527 4.73333 15.1213 5.93333 15.8476 6.66667C16.574 7.4 17.7625 8 18.4889 8C20.1899 8 22.4508 5.71733 22.4508 4C22.4508 2.28267 20.1899 0 18.4889 0C17.7625 0 16.574 0.6 15.8476 1.33333ZM29.7143 3.33333C28.9879 4.06667 28.3937 5.26667 28.3937 6C28.3937 6.73333 28.9879 7.93333 29.7143 8.66667C30.4406 9.4 31.6292 10 32.3556 10C34.0565 10 36.3175 7.71733 36.3175 6C36.3175 4.28267 34.0565 2 32.3556 2C31.6292 2 30.4406 2.6 29.7143 3.33333ZM3.9619 9.33333C3.23556 10.0667 2.64127 11.2667 2.64127 12C2.64127 13.7173 4.9022 16 6.60317 16C8.30415 16 10.5651 13.7173 10.5651 12C10.5651 11.2667 9.97079 10.0667 9.24444 9.33333C8.5181 8.6 7.32952 8 6.60317 8C5.87682 8 4.68825 8.6 3.9619 9.33333ZM37.9385 15.6367C37.0471 16.5367 36.3175 18.05 36.3175 19C36.3175 21.2227 39.0683 24 41.2698 24C43.4713 24 46.2222 21.2227 46.2222 19C46.2222 16.7773 43.4713 14 41.2698 14C40.3289 14 38.83 14.7367 37.9385 15.6367ZM1.03736 22.3807C0.466844 22.9573 0 23.686 0 24C0 24.7407 1.90766 26.6667 2.64127 26.6667C3.37488 26.6667 5.28254 24.7407 5.28254 24C5.28254 23.2593 3.37488 21.3333 2.64127 21.3333C2.33026 21.3333 1.60853 21.8047 1.03736 22.3807ZM34.2857 29.9487C32.9683 31.2787 32.3556 32.5653 32.3556 34C32.3556 36.868 35.4577 40 38.2984 40C41.1391 40 44.2413 36.868 44.2413 34C44.2413 31.132 41.1391 28 38.2984 28C36.8774 28 35.603 28.6187 34.2857 29.9487ZM4.87909 32.9533C4.22141 34.6833 5.14255 36.1127 6.76561 35.88C8.88127 35.5767 8.88127 32.4233 6.76561 32.12C5.8722 31.992 5.11746 32.3253 4.87909 32.9533ZM16.7721 36.2667C13.6488 39.42 13.6488 42.58 16.7721 45.7333C18.516 47.494 19.5619 48 21.4603 48C23.3587 48 24.4047 47.494 26.1486 45.7333C29.2719 42.58 29.2719 39.42 26.1486 36.2667C24.4047 34.506 23.3587 34 21.4603 34C19.5619 34 18.516 34.506 16.7721 36.2667Z" fill="#C1C7D0"/>
</svg>
