<svg width="56" height="56" viewBox="0 0 56 56" fill="none" xmlns="http://www.w3.org/2000/svg">
<g style="mix-blend-mode:multiply">
<rect width="56" height="56" rx="4" fill="#C1C7D0"/>
<path d="M8 38V48H18" stroke="#6B778C" stroke-width="3" stroke-linecap="round" stroke-linejoin="round"/>
<path d="M38 48H48V38" stroke="#6B778C" stroke-width="3" stroke-linecap="round" stroke-linejoin="round"/>
<path d="M38 8H48V18" stroke="#6B778C" stroke-width="3" stroke-linecap="round" stroke-linejoin="round"/>
<path d="M18 8H8V18" stroke="#6B778C" stroke-width="3" stroke-linecap="round" stroke-linejoin="round"/>
<path d="M20 38C20 38 23 41 28 41C33 41 36 38 36 38" stroke="#6B778C" stroke-width="3" stroke-linecap="round" stroke-linejoin="round"/>
<path d="M15 19C15 19 16.3125 20 18.5 20C20.6875 20 22 19 22 19" stroke="#6B778C" stroke-width="3" stroke-linecap="round" stroke-linejoin="round"/>
<path d="M35 19C35 19 36.3125 20 38.5 20C40.6875 20 42 19 42 19" stroke="#6B778C" stroke-width="3" stroke-linecap="round" stroke-linejoin="round"/>
<path d="M28 18V27C28 29 26 31 24 31H23" stroke="#6B778C" stroke-width="3" stroke-linecap="round" stroke-linejoin="round"/>
</g>
</svg>
