<svg width="80" height="42" viewBox="0 0 80 42" fill="none" xmlns="http://www.w3.org/2000/svg">
<path d="M6.26197 5.056C6.26197 5.52 6.10197 5.90667 5.78197 6.216C5.4673 6.52 4.98464 6.672 4.33397 6.672H3.26197V9H2.53397V3.424H4.33397C4.9633 3.424 5.44064 3.576 5.76597 3.88C6.09664 4.184 6.26197 4.576 6.26197 5.056ZM4.33397 6.072C4.7393 6.072 5.03797 5.984 5.22997 5.808C5.42197 5.632 5.51797 5.38133 5.51797 5.056C5.51797 4.368 5.1233 4.024 4.33397 4.024H3.26197V6.072H4.33397ZM12.6948 9.056C12.1774 9.056 11.7054 8.936 11.2788 8.696C10.8521 8.45067 10.5134 8.112 10.2628 7.68C10.0174 7.24267 9.89478 6.752 9.89478 6.208C9.89478 5.664 10.0174 5.176 10.2628 4.744C10.5134 4.30667 10.8521 3.968 11.2788 3.728C11.7054 3.48267 12.1774 3.36 12.6948 3.36C13.2174 3.36 13.6921 3.48267 14.1188 3.728C14.5454 3.968 14.8814 4.304 15.1268 4.736C15.3721 5.168 15.4948 5.65867 15.4948 6.208C15.4948 6.75733 15.3721 7.248 15.1268 7.68C14.8814 8.112 14.5454 8.45067 14.1188 8.696C13.6921 8.936 13.2174 9.056 12.6948 9.056ZM12.6948 8.424C13.0841 8.424 13.4334 8.33333 13.7428 8.152C14.0574 7.97067 14.3028 7.712 14.4788 7.376C14.6601 7.04 14.7508 6.65067 14.7508 6.208C14.7508 5.76 14.6601 5.37067 14.4788 5.04C14.3028 4.704 14.0601 4.44533 13.7508 4.264C13.4414 4.08267 13.0894 3.992 12.6948 3.992C12.3001 3.992 11.9481 4.08267 11.6388 4.264C11.3294 4.44533 11.0841 4.704 10.9028 5.04C10.7268 5.37067 10.6388 5.76 10.6388 6.208C10.6388 6.65067 10.7268 7.04 10.9028 7.376C11.0841 7.712 11.3294 7.97067 11.6388 8.152C11.9534 8.33333 12.3054 8.424 12.6948 8.424ZM26.4638 3.424L24.8478 9H24.0318L22.7358 4.512L21.3918 9L20.5838 9.008L19.0238 3.424H19.7998L21.0158 8.152L22.3598 3.424H23.1758L24.4558 8.136L25.6798 3.424H26.4638ZM30.9885 4.016V5.88H33.0205V6.48H30.9885V8.4H33.2605V9H30.2605V3.416H33.2605V4.016H30.9885ZM40.2981 9L38.9701 6.72H38.0901V9H37.3621V3.424H39.1621C39.5834 3.424 39.9381 3.496 40.2261 3.64C40.5194 3.784 40.7381 3.97867 40.8821 4.224C41.0261 4.46933 41.0981 4.74933 41.0981 5.064C41.0981 5.448 40.9861 5.78667 40.7621 6.08C40.5434 6.37333 40.2128 6.568 39.7701 6.664L41.1701 9H40.2981ZM38.0901 6.136H39.1621C39.5568 6.136 39.8528 6.04 40.0501 5.848C40.2474 5.65067 40.3461 5.38933 40.3461 5.064C40.3461 4.73333 40.2474 4.47733 40.0501 4.296C39.8581 4.11467 39.5621 4.024 39.1621 4.024H38.0901V6.136ZM45.9573 4.016V5.88H47.9893V6.48H45.9573V8.4H48.2293V9H45.2293V3.416H48.2293V4.016H45.9573ZM54.0668 3.424C54.6748 3.424 55.2002 3.53867 55.6428 3.768C56.0908 3.992 56.4322 4.31467 56.6668 4.736C56.9068 5.15733 57.0268 5.65333 57.0268 6.224C57.0268 6.79467 56.9068 7.29067 56.6668 7.712C56.4322 8.128 56.0908 8.448 55.6428 8.672C55.2002 8.89067 54.6748 9 54.0668 9H52.3308V3.424H54.0668ZM54.0668 8.4C54.7868 8.4 55.3362 8.21067 55.7148 7.832C56.0935 7.448 56.2828 6.912 56.2828 6.224C56.2828 5.53067 56.0908 4.98933 55.7068 4.6C55.3282 4.21067 54.7815 4.016 54.0668 4.016H53.0588V8.4H54.0668ZM68.9119 6.128C69.1146 6.16 69.2986 6.24267 69.4639 6.376C69.6346 6.50933 69.7679 6.67467 69.8639 6.872C69.9652 7.06933 70.0159 7.28 70.0159 7.504C70.0159 7.78667 69.9439 8.04267 69.7999 8.272C69.6559 8.496 69.4452 8.67467 69.1679 8.808C68.8959 8.936 68.5732 9 68.1999 9H66.1199V3.424H68.1199C68.4986 3.424 68.8212 3.488 69.0879 3.616C69.3546 3.73867 69.5546 3.90667 69.6879 4.12C69.8212 4.33333 69.8879 4.57333 69.8879 4.84C69.8879 5.17067 69.7972 5.44533 69.6159 5.664C69.4399 5.87733 69.2052 6.032 68.9119 6.128ZM66.8479 5.832H68.0719C68.4132 5.832 68.6772 5.752 68.8639 5.592C69.0506 5.432 69.1439 5.21067 69.1439 4.928C69.1439 4.64533 69.0506 4.424 68.8639 4.264C68.6772 4.104 68.4079 4.024 68.0559 4.024H66.8479V5.832ZM68.1359 8.4C68.4986 8.4 68.7812 8.31467 68.9839 8.144C69.1866 7.97333 69.2879 7.736 69.2879 7.432C69.2879 7.12267 69.1812 6.88 68.9679 6.704C68.7546 6.52267 68.4692 6.432 68.1119 6.432H66.8479V8.4H68.1359ZM77.9302 3.424L76.1142 6.896V9H75.3862V6.896L73.5622 3.424H74.3702L75.7462 6.248L77.1222 3.424H77.9302Z" fill="#0D5FB3"/>
<path d="M34.3342 24.7783H32.2685V31.4454H30.2027V24.7783H28.137V22.5918H34.3342V24.7783Z" fill="#0D5FB3"/>
<path d="M39.4986 22.5918H37.3972V31.4454H39.4986V22.5918Z" fill="#0D5FB3"/>
<path d="M47.9041 29.223V31.4454H43.1315V22.5918H45.2328V29.223H47.9041Z" fill="#0D5FB3"/>
<path d="M55.5972 30.0116H52.926L52.4986 31.4454H50.2548L53.2109 22.5918H55.2411L58.2685 31.4454H55.989L55.5972 30.0116ZM54.2438 25.3518L53.4246 28.1118H55.0986L54.2438 25.3518Z" fill="#0D5FB3"/>
<path d="M65.3918 31.4454L63.2548 27.5383V31.4454H61.1534V22.5918H63.2548V26.3196L65.2493 22.5918H67.6356L65.2137 26.8931L67.885 31.4454H65.3918Z" fill="#0D5FB3"/>
<path d="M75.1862 30.0116H72.515L72.0876 31.4454H69.8794L72.8356 22.5918H74.8657L77.8931 31.4454H75.6136L75.1862 30.0116ZM73.8684 25.3518L73.0136 28.1118H74.6876L73.8684 25.3518Z" fill="#0D5FB3"/>
<path d="M41.5643 34.0263L40.1397 37.3957H40.5314L40.9232 36.4637H42.526L42.9177 37.3957H43.3095L41.8493 34.0263H41.5643ZM41.0657 36.1411L41.7068 34.6356L42.3479 36.1411H41.0657ZM46.0164 34.3847H47.0493V37.3957H47.4054V34.3847H48.4383V34.0263H46.0164V34.3847ZM50.0767 35.8185H51.5013V35.4601H50.0767V34.3847H51.6082V34.0263H49.7205V37.3957H51.6794V37.0372H50.0767V35.8185ZM30.9506 36.6788L28.9917 33.9904H28.7068V37.3598H29.063V34.6715L31.0219 37.3598H31.3068V33.9904H30.9506V36.6788ZM69.9862 33.9546C68.989 33.9546 68.241 34.7073 68.241 35.711C68.241 36.7146 68.9534 37.4315 69.9862 37.4315C70.9835 37.4315 71.7314 36.7146 71.7314 35.711C71.7314 34.7073 70.9835 33.9546 69.9862 33.9546ZM69.9862 37.0731C69.2027 37.0731 68.6328 36.4995 68.6328 35.711C68.6328 34.9224 69.2027 34.313 69.9862 34.313C70.7698 34.313 71.3397 34.8865 71.3397 35.711C71.3397 36.4995 70.7698 37.0731 69.9862 37.0731ZM38.1095 35.4959C37.6109 35.3884 37.2903 35.2808 37.2903 34.9224C37.2903 34.5639 37.5753 34.3489 38.0383 34.3489C38.4657 34.3489 38.7506 34.5998 38.7506 34.9941V35.1016H39.1068V34.9941C39.1068 34.4206 38.6794 33.9904 38.0027 33.9904C37.326 33.9904 36.8986 34.3847 36.8986 34.9224C36.8986 35.6034 37.504 35.7468 38.0027 35.8543C38.5013 35.9619 38.8219 36.0694 38.8219 36.4637C38.8219 36.858 38.5013 37.1089 38.0383 37.1089C37.5397 37.1089 37.1835 36.8221 37.1835 36.392V36.2845H36.8273V36.3562C36.8273 37.0014 37.326 37.4315 38.0383 37.4315C38.715 37.4315 39.178 37.0372 39.178 36.4279C39.2136 35.7468 38.6082 35.6034 38.1095 35.4959ZM35.1177 36.1053C35.1177 36.6788 34.726 37.0731 34.1917 37.0731C33.6575 37.0731 33.2657 36.6788 33.2657 36.1053V33.9904H32.9095V36.1053C32.9095 36.858 33.4438 37.4315 34.1917 37.4315C34.9397 37.4315 35.4739 36.8938 35.4739 36.1053V33.9904H35.1177V36.1053ZM65.926 34.0263H65.5698V37.3957H67.4575V37.0372H65.926V34.0263ZM62.3999 33.9546C61.4027 33.9546 60.6547 34.7073 60.6547 35.711C60.6547 36.7146 61.4027 37.4315 62.3999 37.4315C63.3972 37.4315 64.1451 36.7146 64.1451 35.711C64.1451 34.7073 63.3972 33.9546 62.3999 33.9546ZM62.3999 37.0731C61.6164 37.0731 61.0465 36.4995 61.0465 35.711C61.0465 34.9224 61.6164 34.313 62.3999 34.313C63.1835 34.313 63.7534 34.8865 63.7534 35.711C63.7534 36.4995 63.1835 37.0731 62.3999 37.0731ZM74.3314 36.0694H75.8629C75.7561 36.6788 75.2575 37.1089 74.5808 37.1089C73.7972 37.1089 73.263 36.5354 73.263 35.7468C73.263 34.9582 73.8328 34.3847 74.5808 34.3847C75.1862 34.3847 75.6849 34.7432 75.8273 35.2808L75.8629 35.3525H76.2191L76.1835 35.2091C76.041 34.5281 75.3643 34.0263 74.5808 34.0263C73.6191 34.0263 72.9068 34.779 72.9068 35.7468C72.9068 36.7505 73.6191 37.4673 74.5808 37.4673C75.5068 37.4673 76.1835 36.7863 76.2191 35.8543V35.7468H74.2958V36.0694H74.3314ZM58.9095 36.6788L56.9506 33.9904H56.6657V37.3598H57.0219V34.6715L58.9808 37.3598H59.2657V33.9904H58.9095V36.6788ZM77.6438 37.3957H77.9999V34.0263H77.6438V37.3957ZM55.4904 34.0263H55.0273L53.7808 35.4601H53.389V34.0263H53.0328V37.3957H53.389V35.8185H53.7808L55.1342 37.3957H55.5972L54.1013 35.6393L55.4904 34.0263Z" fill="#0D5FB3"/>
<path d="M4.06027 38.184C3.98904 38.3633 4.02466 38.5066 4.13151 38.5783C4.23836 38.6142 4.41644 38.5425 4.48767 38.3633C4.5589 38.2199 4.52329 38.0765 4.45205 38.0048L5.4137 36.0692C5.48493 35.9617 5.80548 35.3523 5.98356 35.0297C6.05479 34.9222 6.12603 34.7788 6.19726 34.6713C6.55342 34.0978 6.90959 33.5601 7.33699 33.0225C7.83562 32.3773 8.36986 31.8037 8.97534 31.2661C9.29589 31.0152 9.61644 30.7643 9.93699 30.5133C10.2219 30.2983 10.5068 30.1191 10.7918 29.904C10.8274 29.8681 10.8986 29.8323 10.9342 29.7965C11.611 29.3305 12.2877 28.8645 12.9288 28.3985C13.2493 28.1476 13.6055 27.9325 13.926 27.6816C14.1041 27.5741 14.2466 27.4307 14.4247 27.3232C14.6027 27.2157 14.7452 27.0723 14.9233 26.9647C15.2438 26.7138 15.5644 26.4629 15.8849 26.1762C16.2055 25.8894 16.4904 25.6385 16.7753 25.3159C17.0603 25.0291 17.3452 24.7065 17.5945 24.3839C17.737 24.2047 17.8438 24.0613 17.9507 23.8821C18.0575 23.7029 18.1644 23.5237 18.2712 23.3445C18.1644 23.5237 18.0219 23.6671 17.9151 23.8463C17.7726 23.9897 17.6658 24.1689 17.5233 24.3123C17.2384 24.599 16.9534 24.8858 16.6685 25.1725C16.3836 25.4593 16.063 25.7102 15.7425 25.9611C15.4219 26.212 15.1014 26.4629 14.7808 26.678C14.6027 26.7855 14.4603 26.9289 14.2822 27.0364C14.1041 27.144 13.9616 27.2873 13.7836 27.3949C13.463 27.6099 13.1068 27.8609 12.7863 28.0759C12.1452 28.5061 11.5041 28.9362 10.8274 29.4022C10.7918 29.438 10.7918 29.438 10.7562 29.438C10.4356 29.6889 10.0795 29.904 9.7589 30.1549C9.58082 30.2624 9.43836 30.4058 9.26027 30.5133C9.18904 30.585 9.08219 30.6567 9.01096 30.6926L8.76164 30.9793C8.15616 31.517 7.5863 32.1622 7.12329 32.8432C6.73151 33.3809 6.41096 33.9186 6.09041 34.4921C6.01918 34.6355 5.91233 34.8147 5.8411 34.958C5.66301 35.3165 5.30685 36.0692 5.30685 36.0692L4.34521 38.0048C4.23836 37.969 4.13151 38.0407 4.06027 38.184ZM22.2603 22.305C21.8329 18.5413 19.9096 17 19.9096 17L19.6247 17.5377C19.4466 17.8603 19.3041 18.147 19.126 18.4338C16.3836 17.6452 13.5342 17.2509 10.6849 17.2509C7.08767 17.2509 3.45479 17.8961 0 19.1148V21.0146C0 26.3195 1.63836 31.3736 4.70137 35.4957L4.73699 35.5316C4.30959 36.4994 3.52603 37.1087 3.52603 37.1087C4.59452 36.6427 5.27123 35.1014 5.4137 34.8147C5.4137 34.7788 5.44932 34.7788 5.44932 34.743C5.44932 34.6355 5.44931 34.5279 5.48493 34.4562C5.48493 34.3129 5.52055 34.2053 5.52055 34.0619C5.52055 33.9903 5.52055 33.9544 5.55616 33.8827C5.55616 33.8469 5.55616 33.811 5.55616 33.7752C5.73425 32.5565 6.12603 31.2302 6.58904 30.2624C6.87397 31.3736 7.19452 31.8396 7.23014 31.8396C6.98082 31.1944 6.94521 29.438 6.94521 29.438C7.87123 27.6816 9.47397 26.5346 10.2575 25.9611C10.5781 26.7138 10.5781 28.0759 10.5781 28.0759C10.6493 27.7533 10.7205 27.359 10.7562 26.9647C10.7918 26.6421 10.7918 26.3554 10.7562 26.1045V25.6027C12.0027 24.7782 13.1781 24.0972 14.3178 23.452C14.8877 24.3123 14.8877 25.3876 14.8877 25.3876C15.0658 24.3481 14.8877 23.7029 14.5671 23.2728C15.6356 22.6276 16.6685 21.9465 17.5945 21.0504C17.9151 21.4806 18.0575 22.0541 18.0575 22.0541C18.0575 21.7673 17.9507 21.2655 17.8438 20.8354C18.4849 20.1902 19.0904 19.4374 19.6603 18.5055C19.8027 18.2546 19.9096 18.1112 20.0521 17.8244C20.0521 17.8244 21.5479 19.3657 21.6548 21.9465C21.5836 21.9465 21.5123 21.9824 21.4055 22.0182C20.6219 22.2691 19.1616 23.0219 18.7342 23.452C19.3041 23.0936 20.4082 22.6993 21.3699 22.4484C21.5123 22.4125 21.6548 22.3767 21.7616 22.3408C22.0822 24.5632 21.1205 25.746 21.1205 25.746C21.0493 25.746 20.9781 25.7102 20.9068 25.7102C20.6219 25.6743 20.337 25.6743 20.0521 25.6743C18.9836 25.7102 16.9178 26.3912 16.8466 26.4271C18.7699 26.0328 20.3014 26.212 20.7644 26.2837C20.8712 26.2837 20.9068 26.3195 20.9068 26.3195C20.8356 26.4629 20.7644 26.6063 20.6575 26.7497C19.589 28.3268 16.9534 29.5455 15.4219 30.585C13.1781 30.2266 10.9699 30.8718 10.8986 30.8718C13 30.5492 14.4247 30.9435 14.4247 30.9435C12.6082 31.7321 11.0767 33.0583 10.6493 33.4526C10.5781 33.5243 10.5425 33.5601 10.5425 33.5601C8.40548 33.5243 7.47945 34.1336 7.47945 34.1695C8.36986 33.8469 9.40274 33.8827 9.65205 33.9186C9.65205 33.9186 8.54794 34.8147 7.5863 35.209C7.30137 35.3165 6.66027 35.5316 6.58904 35.5674C6.48219 35.6391 6.16164 35.89 5.66301 36.7144C5.05753 37.7539 5.76986 38.8292 5.76986 38.8292C5.76986 38.8292 4.13151 39.4028 3.13425 41.2667C3.13425 41.2667 4.66575 39.5461 6.66027 39.2235C6.66027 39.2235 5.94794 38.184 6.16164 37.2521C7.47945 38.6859 8.93972 39.9763 10.6137 41.0516C15.3507 37.8973 18.7342 33.2375 20.337 27.8967C21.3699 27.0364 22.5452 25.1008 22.2603 22.305ZM10.7562 25.065C10.6493 25.1367 10.5781 25.1725 10.4712 25.2442L9.9726 25.6027C5.87671 28.4702 5.37808 32.0905 5.16438 33.2017C4.84384 32.6999 4.52329 32.1622 4.23836 31.6245C2.49315 28.3627 1.56712 24.7065 1.56712 21.0146V20.2977C4.5589 19.3299 7.5863 18.8639 10.6849 18.8639H10.7205V25.065H10.7562ZM10.7562 39.0443L10.7205 39.0802C9.43836 38.1482 8.26301 37.0729 7.19452 35.8542C7.40822 35.7825 7.62192 35.7108 7.87123 35.6391C8.90411 35.209 10.0438 34.277 10.0438 34.277L10.3288 34.0619C10.3644 34.0619 10.3644 34.0619 10.4 34.0619C10.4712 34.0619 10.5781 34.0619 10.6493 34.0619H10.7918V39.0443H10.7562Z" fill="#0D5FB3"/>
</svg>
